<?xml version="1.0" encoding="utf-8"?>
<!-- Generator: Adobe Illustrator 19.1.0, SVG Export Plug-In . SVG Version: 6.00 Build 0)  -->
<!DOCTYPE svg PUBLIC "-//W3C//DTD SVG 1.1//EN" "http://www.w3.org/Graphics/SVG/1.1/DTD/svg11.dtd">
<svg version="1.1" id="Layer_1" xmlns="http://www.w3.org/2000/svg" xmlns:xlink="http://www.w3.org/1999/xlink" x="0px" y="0px"
	 viewBox="0 0 345.5 80" enable-background="new 0 0 345.5 80" xml:space="preserve">
<g>
	<g opacity="0.5">
		<polygon fill="#333333" points="20.2,0 39.5,11.2 58.8,0 78.1,11.1 39.5,33.5 0.8,10.8 		"/>
	</g>
	<g>
		<polygon fill="#09BCD4" points="20.2,0 39.5,11.2 58.8,0 78.1,11.1 39.5,33.5 0.8,10.8 		"/>
	</g>
</g>
<g>
	<g opacity="0.5">
		<polygon fill="#333333" points="79,35.4 59.7,46.5 59.7,68.8 40.4,80 40.4,35.4 79.3,13.2 		"/>
	</g>
	<g>
		<polygon fill="#01838F" points="79,35.4 59.7,46.5 59.7,68.8 40.4,80 40.4,35.4 79.3,13.2 		"/>
	</g>
</g>
<g>
	<g opacity="0.5">
		<polygon fill="#333333" points="19.3,68.6 19.3,46.3 0,35.1 0,12.8 38.7,35.2 38.3,80 		"/>
	</g>
	<g>
		<polygon fill="#09BCD4" points="19.3,68.6 19.3,46.3 0,35.1 0,12.8 38.7,35.2 38.3,80 		"/>
	</g>
</g>
<g>
	<g opacity="0.5">
		<text transform="matrix(1 0 0 1 86.0083 73.2168)" fill="#333333" font-family="'Roboto-Medium'" font-size="37.4786px">NEW YORK</text>
	</g>
	<g>
		<text transform="matrix(1 0 0 1 86.0083 73.2168)" fill="#09BCD4" font-family="'Roboto-Medium'" font-size="37.4786px">NEW YORK</text>
	</g>
</g>
<g>
	<g opacity="0.5">
		<text transform="matrix(1 0 0 1 86.0086 40.1571)" fill="#333333" font-family="'Roboto-Medium'" font-size="37.4786px">YOUTH FORUM</text>
	</g>
	<g>
		<text transform="matrix(1 0 0 1 86.0086 40.1571)" fill="#09BCD4" font-family="'Roboto-Medium'" font-size="37.4786px">YOUTH FORUM</text>
	</g>
</g>
</svg>
