<svg xmlns="http://www.w3.org/2000/svg" viewBox="0 0 728 90"><defs><style>.cls-1{fill:#b2ebf2;}.cls-2{opacity:0.5;}.cls-3{fill:#333;}.cls-4{fill:#09bcd4;}.cls-5{fill:#01838f;}.cls-6{fill:#fff;}</style></defs><title>yfny2016</title><g id="Layer_2" data-name="Layer 2"><g id="Layer_1-2" data-name="Layer 1"><rect class="cls-1" width="728" height="90"/><g class="cls-2"><polygon class="cls-3" points="51.9 15.66 65.98 23.83 80.07 15.66 94.16 23.76 65.98 40.11 37.73 23.54 51.9 15.66"/></g><polygon class="cls-4" points="51.9 15.66 65.98 23.83 80.07 15.66 94.16 23.76 65.98 40.11 37.73 23.54 51.9 15.66"/><g class="cls-2"><polygon class="cls-3" points="94.81 41.5 80.73 49.6 80.73 65.88 66.64 74.05 66.64 41.5 95.03 25.29 94.81 41.5"/></g><polygon class="cls-5" points="94.81 41.5 80.73 49.6 80.73 65.88 66.64 74.05 66.64 41.5 95.03 25.29 94.81 41.5"/><g class="cls-2"><polygon class="cls-3" points="51.24 65.73 51.24 49.45 37.15 41.28 37.15 25 65.4 41.35 65.11 74.05 51.24 65.73"/></g><polygon class="cls-4" points="51.24 65.73 51.24 49.45 37.15 41.28 37.15 25 65.4 41.35 65.11 74.05 51.24 65.73"/><g class="cls-2"><path class="cls-3" d="M117.22,69.09H114L105.4,54.93h-.07V69.09h-3.21V49.67h3.21l8.61,14.16H114V49.67h3.21Z"/><path class="cls-3" d="M133.28,60.33h-8.54v6.13h9.85v2.63H121.46V49.67h13V52.3h-9.71v5.47h8.54Z"/><path class="cls-3" d="M142,63.91h0l3.87-14.23h2.63l3.94,14.23v-.07l3.07-14.23h3.21L154.16,69h-2.92l-3.87-13.94h-.07L143.43,69h-3l-4.6-19.42H139Z"/><path class="cls-3" d="M174.74,59.09l4.67-9.49h3.65l-6.72,12.63v6.86h-3.21v-7L166.49,49.6h3.65Z"/><path class="cls-3" d="M200.07,61.13A8,8,0,0,1,197.81,67,7.75,7.75,0,0,1,192,69.38,7.53,7.53,0,0,1,186.28,67a8.22,8.22,0,0,1-2.19-5.91v-3.5a8.47,8.47,0,0,1,2.19-5.91A7.53,7.53,0,0,1,192,49.38a7.86,7.86,0,0,1,5.84,2.34,8.27,8.27,0,0,1,2.26,5.91Zm-3.21-3.5a6.18,6.18,0,0,0-1.31-4,4.17,4.17,0,0,0-3.5-1.53,4,4,0,0,0-3.36,1.53,6.42,6.42,0,0,0-1.24,4v3.5a6.42,6.42,0,0,0,1.24,4A4.09,4.09,0,0,0,192,66.68a4.38,4.38,0,0,0,3.5-1.53,6,6,0,0,0,1.31-4Z"/><path class="cls-3" d="M206.86,61.06v8.1h-3.28V49.67h7.15a7.81,7.81,0,0,1,5,1.46,5.14,5.14,0,0,1,1.75,4.16,4.49,4.49,0,0,1-.8,2.63,5.55,5.55,0,0,1-2.26,1.75,4.16,4.16,0,0,1,2.34,1.68,5.26,5.26,0,0,1,.73,2.92v1.61a6.63,6.63,0,0,0,.22,1.68,2.36,2.36,0,0,0,.73,1.24v.29h-3.21a1.93,1.93,0,0,1-.66-1.39,16.68,16.68,0,0,1-.15-1.82V64.34a3.26,3.26,0,0,0-.88-2.41,3.2,3.2,0,0,0-2.34-.88Zm0-2.63h3.8a4.3,4.3,0,0,0,2.85-.73,2.81,2.81,0,0,0,.88-2.26,3.2,3.2,0,0,0-.88-2.34,3.63,3.63,0,0,0-2.7-.8h-3.94Z"/><path class="cls-3" d="M227.22,60.69H225v8.39h-3.21V49.67H225v8.25h1.82l6.13-8.25h3.87l-7.08,9.27,7.59,10.15h-3.94Z"/></g><path class="cls-4" d="M117.22,69.09H114L105.4,54.93h-.07V69.09h-3.21V49.67h3.21l8.61,14.16H114V49.67h3.21Z"/><path class="cls-4" d="M133.28,60.33h-8.54v6.13h9.85v2.63H121.46V49.67h13V52.3h-9.71v5.47h8.54Z"/><path class="cls-4" d="M142,63.91h0l3.87-14.23h2.63l3.94,14.23v-.07l3.07-14.23h3.21L154.16,69h-2.92l-3.87-13.94h-.07L143.43,69h-3l-4.6-19.42H139Z"/><path class="cls-4" d="M174.74,59.09l4.67-9.49h3.65l-6.72,12.63v6.86h-3.21v-7L166.49,49.6h3.65Z"/><path class="cls-4" d="M200.07,61.13A8,8,0,0,1,197.81,67,7.75,7.75,0,0,1,192,69.38,7.53,7.53,0,0,1,186.28,67a8.22,8.22,0,0,1-2.19-5.91v-3.5a8.47,8.47,0,0,1,2.19-5.91A7.53,7.53,0,0,1,192,49.38a7.86,7.86,0,0,1,5.84,2.34,8.27,8.27,0,0,1,2.26,5.91Zm-3.21-3.5a6.18,6.18,0,0,0-1.31-4,4.17,4.17,0,0,0-3.5-1.53,4,4,0,0,0-3.36,1.53,6.42,6.42,0,0,0-1.24,4v3.5a6.42,6.42,0,0,0,1.24,4A4.09,4.09,0,0,0,192,66.68a4.38,4.38,0,0,0,3.5-1.53,6,6,0,0,0,1.31-4Z"/><path class="cls-4" d="M206.86,61.06v8.1h-3.28V49.67h7.15a7.81,7.81,0,0,1,5,1.46,5.14,5.14,0,0,1,1.75,4.16,4.49,4.49,0,0,1-.8,2.63,5.55,5.55,0,0,1-2.26,1.75,4.16,4.16,0,0,1,2.34,1.68,5.26,5.26,0,0,1,.73,2.92v1.61a6.63,6.63,0,0,0,.22,1.68,2.36,2.36,0,0,0,.73,1.24v.29h-3.21a1.93,1.93,0,0,1-.66-1.39,16.68,16.68,0,0,1-.15-1.82V64.34a3.26,3.26,0,0,0-.88-2.41,3.2,3.2,0,0,0-2.34-.88Zm0-2.63h3.8a4.3,4.3,0,0,0,2.85-.73,2.81,2.81,0,0,0,.88-2.26,3.2,3.2,0,0,0-.88-2.34,3.63,3.63,0,0,0-2.7-.8h-3.94Z"/><path class="cls-4" d="M227.22,60.69H225v8.39h-3.21V49.67H225v8.25h1.82l6.13-8.25h3.87l-7.08,9.27,7.59,10.15h-3.94Z"/><g class="cls-2"><path class="cls-3" d="M108.39,35l4.67-9.49h3.65L110,38.14V45h-3.21V38l-6.64-12.48h3.65Z"/><path class="cls-3" d="M133.79,37a8,8,0,0,1-2.26,5.91,7.75,7.75,0,0,1-5.84,2.34A7.53,7.53,0,0,1,120,42.88,8.22,8.22,0,0,1,117.81,37v-3.5A8.47,8.47,0,0,1,120,27.55a7.53,7.53,0,0,1,5.69-2.34,7.86,7.86,0,0,1,5.84,2.34,8.27,8.27,0,0,1,2.26,5.91Zm-3.28-3.5a6.18,6.18,0,0,0-1.31-4,4.17,4.17,0,0,0-3.5-1.53,4,4,0,0,0-3.36,1.53,6.42,6.42,0,0,0-1.24,4V37a6.42,6.42,0,0,0,1.24,4,4.15,4.15,0,0,0,3.36,1.61,4.38,4.38,0,0,0,3.5-1.53,6,6,0,0,0,1.31-4Z"/><path class="cls-3" d="M152,25.51V38.58a6.09,6.09,0,0,1-2.12,5,8.29,8.29,0,0,1-5.55,1.75,8.14,8.14,0,0,1-5.4-1.75,6,6,0,0,1-2-5V25.51h3.21v13a3.71,3.71,0,0,0,1.17,3.07,4.57,4.57,0,0,0,3.07,1,5,5,0,0,0,3.21-1,3.71,3.71,0,0,0,1.17-3.07v-13Z"/><path class="cls-3" d="M169.19,28.14h-5.91V45h-3.21V28.14h-5.91V25.51h15Z"/><path class="cls-3" d="M186.93,45h-3.21V36.68H175V45h-3.21V25.51H175v8.54h8.69V25.51h3.21Z"/><path class="cls-3" d="M209.78,36.68h-8.54V45H198V25.51h13.14v2.63h-9.85v5.91h8.54v2.63Z"/><path class="cls-3" d="M229,37a8,8,0,0,1-2.26,5.91,7.75,7.75,0,0,1-5.84,2.34,7.53,7.53,0,0,1-5.69-2.34A8.22,8.22,0,0,1,213.06,37v-3.5a8.47,8.47,0,0,1,2.19-5.91,7.53,7.53,0,0,1,5.69-2.34,7.86,7.86,0,0,1,5.84,2.34A8.27,8.27,0,0,1,229,33.47Zm-3.21-3.5a6.18,6.18,0,0,0-1.31-4,4.17,4.17,0,0,0-3.5-1.53,4,4,0,0,0-3.36,1.53,6.42,6.42,0,0,0-1.24,4V37a6.42,6.42,0,0,0,1.24,4A4.15,4.15,0,0,0,221,42.59a4.38,4.38,0,0,0,3.5-1.53,6,6,0,0,0,1.31-4Z"/><path class="cls-3" d="M235.84,36.9V45h-3.21V25.51h7.15a7.81,7.81,0,0,1,5,1.46,5.14,5.14,0,0,1,1.75,4.16,4.49,4.49,0,0,1-.8,2.63,5.55,5.55,0,0,1-2.26,1.75,4.16,4.16,0,0,1,2.34,1.68,5.26,5.26,0,0,1,.73,2.92v1.61a6.63,6.63,0,0,0,.22,1.68,2.36,2.36,0,0,0,.73,1.24v.29h-3.36a1.93,1.93,0,0,1-.66-1.39,16.68,16.68,0,0,1-.15-1.82V40.18a3.26,3.26,0,0,0-.88-2.41,3.2,3.2,0,0,0-2.34-.88Zm0-2.63h3.8a4.3,4.3,0,0,0,2.85-.73,2.81,2.81,0,0,0,.88-2.26,3.2,3.2,0,0,0-.88-2.34,3.63,3.63,0,0,0-2.7-.8h-3.94Z"/><path class="cls-3" d="M265.47,25.51V38.58a6.09,6.09,0,0,1-2.12,5,8.29,8.29,0,0,1-5.55,1.75,8.14,8.14,0,0,1-5.4-1.75,6,6,0,0,1-2-5V25.51h3.21v13a3.71,3.71,0,0,0,1.17,3.07,4.57,4.57,0,0,0,3.07,1,5,5,0,0,0,3.21-1,3.71,3.71,0,0,0,1.17-3.07v-13Z"/><path class="cls-3" d="M273.5,25.51l5.62,15h.07l5.62-15h4.23V44.93h-3.21V38.28l.29-8.39h-.07L280.22,45H278l-5.77-15h-.07l.29,8.39V45h-3.21V25.51Z"/></g><path class="cls-4" d="M108.39,35l4.67-9.49h3.65L110,38.14V45h-3.21V38l-6.64-12.48h3.65Z"/><path class="cls-4" d="M133.79,37a8,8,0,0,1-2.26,5.91,7.75,7.75,0,0,1-5.84,2.34A7.53,7.53,0,0,1,120,42.88,8.22,8.22,0,0,1,117.81,37v-3.5A8.47,8.47,0,0,1,120,27.55a7.53,7.53,0,0,1,5.69-2.34,7.86,7.86,0,0,1,5.84,2.34,8.27,8.27,0,0,1,2.26,5.91Zm-3.28-3.5a6.18,6.18,0,0,0-1.31-4,4.17,4.17,0,0,0-3.5-1.53,4,4,0,0,0-3.36,1.53,6.42,6.42,0,0,0-1.24,4V37a6.42,6.42,0,0,0,1.24,4,4.15,4.15,0,0,0,3.36,1.61,4.38,4.38,0,0,0,3.5-1.53,6,6,0,0,0,1.31-4Z"/><path class="cls-4" d="M152,25.51V38.58a6.09,6.09,0,0,1-2.12,5,8.29,8.29,0,0,1-5.55,1.75,8.14,8.14,0,0,1-5.4-1.75,6,6,0,0,1-2-5V25.51h3.21v13a3.71,3.71,0,0,0,1.17,3.07,4.57,4.57,0,0,0,3.07,1,5,5,0,0,0,3.21-1,3.71,3.71,0,0,0,1.17-3.07v-13Z"/><path class="cls-4" d="M169.19,28.14h-5.91V45h-3.21V28.14h-5.91V25.51h15Z"/><path class="cls-4" d="M186.93,45h-3.21V36.68H175V45h-3.21V25.51H175v8.54h8.69V25.51h3.21Z"/><path class="cls-4" d="M209.78,36.68h-8.54V45H198V25.51h13.14v2.63h-9.85v5.91h8.54v2.63Z"/><path class="cls-4" d="M229,37a8,8,0,0,1-2.26,5.91,7.75,7.75,0,0,1-5.84,2.34,7.53,7.53,0,0,1-5.69-2.34A8.22,8.22,0,0,1,213.06,37v-3.5a8.47,8.47,0,0,1,2.19-5.91,7.53,7.53,0,0,1,5.69-2.34,7.86,7.86,0,0,1,5.84,2.34A8.27,8.27,0,0,1,229,33.47Zm-3.21-3.5a6.18,6.18,0,0,0-1.31-4,4.17,4.17,0,0,0-3.5-1.53,4,4,0,0,0-3.36,1.53,6.42,6.42,0,0,0-1.24,4V37a6.42,6.42,0,0,0,1.24,4A4.15,4.15,0,0,0,221,42.59a4.38,4.38,0,0,0,3.5-1.53,6,6,0,0,0,1.31-4Z"/><path class="cls-4" d="M235.84,36.9V45h-3.21V25.51h7.15a7.81,7.81,0,0,1,5,1.46,5.14,5.14,0,0,1,1.75,4.16,4.49,4.49,0,0,1-.8,2.63,5.55,5.55,0,0,1-2.26,1.75,4.16,4.16,0,0,1,2.34,1.68,5.26,5.26,0,0,1,.73,2.92v1.61a6.63,6.63,0,0,0,.22,1.68,2.36,2.36,0,0,0,.73,1.24v.29h-3.36a1.93,1.93,0,0,1-.66-1.39,16.68,16.68,0,0,1-.15-1.82V40.18a3.26,3.26,0,0,0-.88-2.41,3.2,3.2,0,0,0-2.34-.88Zm0-2.63h3.8a4.3,4.3,0,0,0,2.85-.73,2.81,2.81,0,0,0,.88-2.26,3.2,3.2,0,0,0-.88-2.34,3.63,3.63,0,0,0-2.7-.8h-3.94Z"/><path class="cls-4" d="M265.47,25.51V38.58a6.09,6.09,0,0,1-2.12,5,8.29,8.29,0,0,1-5.55,1.75,8.14,8.14,0,0,1-5.4-1.75,6,6,0,0,1-2-5V25.51h3.21v13a3.71,3.71,0,0,0,1.17,3.07,4.57,4.57,0,0,0,3.07,1,5,5,0,0,0,3.21-1,3.71,3.71,0,0,0,1.17-3.07v-13Z"/><path class="cls-4" d="M273.5,25.51l5.62,15h.07l5.62-15h4.23V44.93h-3.21V38.28l.29-8.39h-.07L280.22,45H278l-5.77-15h-.07l.29,8.39V45h-3.21V25.51Z"/><path class="cls-6" d="M643.67,55.42a2.47,2.47,0,0,1-.7,1.81,2.51,2.51,0,0,1-4.32-1.81v-1a2.47,2.47,0,0,1,.7-1.81,2.51,2.51,0,0,1,4.32,1.81Zm-1.18-1.11a1.77,1.77,0,0,0-.35-1.11,1.17,1.17,0,0,0-1-.42,1.26,1.26,0,0,0-1,.42,1.53,1.53,0,0,0-.35,1.11v1a2.16,2.16,0,0,0,.35,1.18,1,1,0,0,0,1,.42,1.26,1.26,0,0,0,1-.42,1.61,1.61,0,0,0,.35-1.18Z"/><path class="cls-6" d="M645.83,55.48v2.37h-1.18V51.93h2.23a2.32,2.32,0,0,1,1.6.49,1.56,1.56,0,0,1,.56,1.32,1.4,1.4,0,0,1-.21.77,1.9,1.9,0,0,1-.7.56,1.23,1.23,0,0,1,.77.49,1.74,1.74,0,0,1,.21.91v.42a1.19,1.19,0,0,0,.07.49,2.32,2.32,0,0,0,.21.42v.07h-1.25a.42.42,0,0,1-.21-.42c0-.21-.07-.42-.07-.56v-.49a1,1,0,0,0-.21-.7,1.06,1.06,0,0,0-.7-.28h-1.11Zm0-.91h1a1.25,1.25,0,0,0,.77-.21.84.84,0,0,0,0-1.25,1.18,1.18,0,0,0-.7-.21h-1v1.67Z"/><path class="cls-6" d="M654.67,57a2.89,2.89,0,0,1-.84.63,2.93,2.93,0,0,1-1.39.28,2.47,2.47,0,0,1-1.81-.7,2.31,2.31,0,0,1-.7-1.74V54.23a2.21,2.21,0,0,1,.7-1.74,2.61,2.61,0,0,1,1.74-.7,2.54,2.54,0,0,1,1.67.56,1.7,1.7,0,0,1,.56,1.39h-1.11a1.27,1.27,0,0,0-.28-.77.87.87,0,0,0-.77-.28,1.23,1.23,0,0,0-.91.42,1.77,1.77,0,0,0-.35,1.11v1.25a1.93,1.93,0,0,0,.35,1.11,1.12,1.12,0,0,0,.91.42,2.15,2.15,0,0,0,.7-.07l.42-.21V55.62h-1v-.84h2.23V57Z"/><path class="cls-6" d="M658.92,56.6h-2.09l-.42,1.25h-1.18l2-5.92h1.25l2,5.92h-1.18Zm-1.81-1h1.53l-.77-2.37h0Z"/><path class="cls-6" d="M665.89,57.85h-1.18l-2.37-4h0v4h-1.18V51.93h1.18l2.37,4h0v-4h1.18Z"/><path class="cls-6" d="M668.26,57.85h-1.18V51.93h1.18Z"/><path class="cls-6" d="M670.63,56.95h2.93v.91h-4.32v-.63l2.86-4.39h-2.79v-.91h4.25v.63Z"/><path class="cls-6" d="M678,55.21h-2.44v1.67h2.86v.91h-4V51.86h4v.91h-2.86v1.46H678Z"/><path class="cls-6" d="M679.2,57.85V51.93h2a2.47,2.47,0,0,1,1.81.7,2.36,2.36,0,0,1,.7,1.81v1a2.47,2.47,0,0,1-.7,1.81,2.36,2.36,0,0,1-1.81.7h-2Zm1.18-5v4.11h.77a1.17,1.17,0,0,0,1-.42,1.93,1.93,0,0,0,.35-1.11v-1a1.77,1.77,0,0,0-.35-1.11,1.17,1.17,0,0,0-1-.42h-.77Z"/><path class="cls-6" d="M686.72,57.85V51.93h2a2.59,2.59,0,0,1,1.6.42,1.53,1.53,0,0,1,.56,1.25,1.59,1.59,0,0,1-.21.77c-.14.28-.35.35-.63.49a1.29,1.29,0,0,1,.84.49,1.34,1.34,0,0,1,.28.84,1.78,1.78,0,0,1-.56,1.32,2.21,2.21,0,0,1-1.6.42h-2.3Zm1.18-3.48h.84a1.25,1.25,0,0,0,.77-.21.63.63,0,0,0,.28-.56.68.68,0,0,0-.28-.63,1.25,1.25,0,0,0-.77-.21h-.84Zm0,.84v1.74H689a.92.92,0,0,0,.7-.21.88.88,0,0,0,.28-.63,1.18,1.18,0,0,0-.21-.7c-.14-.21-.35-.21-.7-.21Z"/><path class="cls-6" d="M693.62,54.65h0l1.32-2.72h1.32l-2,3.83v2.09h-1.18V55.69l-2-3.76h1.32Z"/><path class="cls-6" d="M652.72,62.17a1,1,0,0,0,.49-.07,1.36,1.36,0,0,0,.49-.07h1a9.52,9.52,0,0,1,1.32.14,2.66,2.66,0,0,1,1.11.42,2.4,2.4,0,0,1,.84.84,2.74,2.74,0,0,1,.35,1.39,3.53,3.53,0,0,1-.14.91c-.14.28-.28.49-.42.77a2.12,2.12,0,0,1-.56.56l-.63.42-.14.07,2.72,3.9c-.21,0-.49.07-.77.07a2.37,2.37,0,0,1-.7-.07l-2.93-4.25v-.07h.07a5.29,5.29,0,0,0,.77-.28,1.45,1.45,0,0,0,.7-.42,1.64,1.64,0,0,0,.56-.63,1.49,1.49,0,0,0,.21-.84,1.83,1.83,0,0,0-.56-1.39,2.29,2.29,0,0,0-1.46-.42h-.42a.88.88,0,0,0-.42.07v8.22h-1.39V62.17Z"/><path class="cls-6" d="M660.25,64.82a.76.76,0,0,0,.35-.07h.63a.63.63,0,0,1,.35.07v3.62a4.22,4.22,0,0,0,.14,1,1.35,1.35,0,0,0,.35.63,1.52,1.52,0,0,0,.56.35,2.61,2.61,0,0,0,.77.07,4.85,4.85,0,0,0,1.11-.14v-5.5a.76.76,0,0,0,.35-.07h.7a.63.63,0,0,1,.35.07V71.3c-.28.07-.63.14-1,.28a7.72,7.72,0,0,1-1.32.14,6.14,6.14,0,0,1-1.18-.14,2.44,2.44,0,0,1-1-.42,3.13,3.13,0,0,1-.7-.91,4.74,4.74,0,0,1-.28-1.6V64.82Z"/><path class="cls-6" d="M667.56,70.26c.21.07.49.14.77.21a3.39,3.39,0,0,0,.84.07,1.36,1.36,0,0,0,.56-.07,3.4,3.4,0,0,0,.49-.21c.14-.07.21-.21.35-.35a1,1,0,0,0,.14-.42.88.88,0,0,0-.07-.42.54.54,0,0,0-.28-.28c-.14-.07-.21-.14-.35-.21a1,1,0,0,0-.49-.14l-.42-.14a2.65,2.65,0,0,1-1.18-.7,1.37,1.37,0,0,1-.35-1,1.75,1.75,0,0,1,.63-1.39,2.8,2.8,0,0,1,1.81-.49,4.6,4.6,0,0,1,1,.07,7.23,7.23,0,0,1,.84.21c0,.14-.07.35-.07.49a1.29,1.29,0,0,0-.14.49c-.21-.07-.42-.14-.7-.21a3.39,3.39,0,0,0-.84-.07,2.6,2.6,0,0,0-.84.14.69.69,0,0,0-.28.91c.07.07.14.21.28.28a1.52,1.52,0,0,0,.35.21c.14.07.28.07.42.14l.56.21a1.4,1.4,0,0,1,.56.28,1.25,1.25,0,0,1,.49.35,3,3,0,0,1,.35.49,2.06,2.06,0,0,1,.14.7,1.49,1.49,0,0,1-.21.84,1.77,1.77,0,0,1-.56.7,1.59,1.59,0,0,1-.84.42,5.41,5.41,0,0,1-1.11.14,4.61,4.61,0,0,1-1-.07c-.28-.07-.63-.14-.84-.21a1.29,1.29,0,0,1,.14-.49C667.42,70.6,667.49,70.39,667.56,70.26Z"/><path class="cls-6" d="M673.07,70.26c.21.07.49.14.77.21a3.39,3.39,0,0,0,.84.07,1.36,1.36,0,0,0,.56-.07,3.4,3.4,0,0,0,.49-.21c.14-.07.21-.21.35-.35a1,1,0,0,0,.14-.42.88.88,0,0,0-.07-.42.54.54,0,0,0-.28-.28c-.14-.07-.21-.14-.35-.21a1,1,0,0,0-.49-.14l-.42-.14a2.65,2.65,0,0,1-1.18-.7,1.37,1.37,0,0,1-.35-1,1.75,1.75,0,0,1,.63-1.39,2.8,2.8,0,0,1,1.81-.49,4.6,4.6,0,0,1,1,.07,7.23,7.23,0,0,1,.84.21c0,.14-.07.35-.07.49a1.29,1.29,0,0,0-.14.49c-.21-.07-.42-.14-.7-.21a3.39,3.39,0,0,0-.84-.07,2.6,2.6,0,0,0-.84.14.69.69,0,0,0-.28.91c.07.07.14.21.28.28a1.52,1.52,0,0,0,.35.21c.14.07.28.07.42.14l.56.21a1.4,1.4,0,0,1,.56.28,1.25,1.25,0,0,1,.49.35,3,3,0,0,1,.35.49,2.06,2.06,0,0,1,.14.7,1.49,1.49,0,0,1-.21.84,1.77,1.77,0,0,1-.56.7,1.59,1.59,0,0,1-.84.42,5.41,5.41,0,0,1-1.11.14,4.61,4.61,0,0,1-1-.07c-.28-.07-.63-.14-.84-.21a1.29,1.29,0,0,1,.14-.49C672.93,70.6,673,70.39,673.07,70.26Z"/><path class="cls-6" d="M679.41,65.8h-.84a.26.26,0,0,0-.07-.21V65a.26.26,0,0,1,.07-.21h2.09v6.62a.76.76,0,0,0-.35.07h-.63a.63.63,0,0,1-.35-.07V65.8Zm-.28-2.44V62a.63.63,0,0,0,.35-.07h.7a.52.52,0,0,1,.35.07v1.39a.76.76,0,0,0-.35.07h-.7A.63.63,0,0,1,679.13,63.36Z"/><path class="cls-6" d="M686.24,67.05a1.22,1.22,0,0,0-.42-1,1.77,1.77,0,0,0-1.11-.28,3.39,3.39,0,0,0-.84.07l-.77.21a2.31,2.31,0,0,1-.28-1l1-.21a5.27,5.27,0,0,1,1-.07,3.1,3.1,0,0,1,2,.56,2.58,2.58,0,0,1,.7,1.88v4.11c-.28.07-.7.14-1.11.21a7.72,7.72,0,0,1-1.32.14,5.42,5.42,0,0,1-1.11-.14,2.33,2.33,0,0,1-.84-.35,2.4,2.4,0,0,1-.56-.63,2,2,0,0,1-.21-1,2.23,2.23,0,0,1,.21-1,2,2,0,0,1,.63-.7,2.16,2.16,0,0,1,.91-.42,5.38,5.38,0,0,1,1-.14h.7c.21,0,.35,0,.42.07v-.28Zm0,1.25a1.36,1.36,0,0,1-.49-.07h-.49a1.86,1.86,0,0,0-1.18.28,1,1,0,0,0-.42.91,1.39,1.39,0,0,0,.14.63.84.84,0,0,0,.35.35,1,1,0,0,0,.49.14h1.11c.21,0,.42-.07.56-.07V68.3Z"/><path class="cls-6" d="M689.37,64.82a.42.42,0,0,0,.28-.07h.56a.53.53,0,0,1,.28.07c0,.14.07.28.07.49s.07.42.07.56a1.85,1.85,0,0,1,.35-.42,3,3,0,0,1,.49-.42,1.4,1.4,0,0,1,.56-.28,2.5,2.5,0,0,1,.77-.14,2.06,2.06,0,0,1,1.67.63,3,3,0,0,1,.56,2v4.18a.76.76,0,0,0-.35.07H694a.63.63,0,0,1-.35-.07V67.54a2.2,2.2,0,0,0-.28-1.32,1,1,0,0,0-.91-.42,2.48,2.48,0,0,0-.7.14,1.08,1.08,0,0,0-.56.42,6.13,6.13,0,0,0-.42.7,4.22,4.22,0,0,0-.14,1v3.34a.76.76,0,0,0-.35.07h-.7a.63.63,0,0,1-.35-.07V64.82Z"/><path class="cls-6" d="M670.56,77.29c.07.07.07.21.14.35a.88.88,0,0,1,.07.42,4.06,4.06,0,0,1-1.32.21,2.58,2.58,0,0,1-2-.7,2.85,2.85,0,0,1-.63-2,5.38,5.38,0,0,1,.14-1,2.41,2.41,0,0,1,.49-.84,3.09,3.09,0,0,1,.77-.56,2.65,2.65,0,0,1,1.11-.21,2.61,2.61,0,0,1,.77.07,2,2,0,0,1,.63.14,1,1,0,0,1-.07.42,1,1,0,0,1-.14.42,2.89,2.89,0,0,0-1.11-.14,1.22,1.22,0,0,0-1.11.49,2,2,0,0,0-.35,1.32,2,2,0,0,0,.42,1.39,1.64,1.64,0,0,0,1.18.42,1.53,1.53,0,0,0,.56-.07C670.21,77.36,670.42,77.36,670.56,77.29Z"/><path class="cls-6" d="M672.51,75.83a1.7,1.7,0,0,0,.42,1.25,1.64,1.64,0,0,0,1.18.42,2.83,2.83,0,0,0,1.32-.28c.07.07.07.21.14.35s.07.28.07.42l-.7.21a3.39,3.39,0,0,1-.84.07,3,3,0,0,1-1.18-.21,1.78,1.78,0,0,1-.84-.56,2.41,2.41,0,0,1-.49-.84,4,4,0,0,1,0-2.09,1.59,1.59,0,0,1,.42-.84,2.18,2.18,0,0,1,.77-.56,2.33,2.33,0,0,1,1-.21,1.93,1.93,0,0,1,.91.21,2.5,2.5,0,0,1,.7.49,1.66,1.66,0,0,1,.42.77,4.08,4.08,0,0,1,.14.91v.56h-3.48Zm2.51-.7a1.53,1.53,0,0,0-.07-.56,2.32,2.32,0,0,0-.21-.42.7.7,0,0,0-.35-.28,1.31,1.31,0,0,0-.56-.14,1.2,1.2,0,0,0-.91.35,2.06,2.06,0,0,0-.42,1Z"/><path class="cls-6" d="M677.25,73h.84a2.46,2.46,0,0,1,.07.42v.42a1.22,1.22,0,0,1,.28-.35.7.7,0,0,1,.35-.28,3.4,3.4,0,0,1,.49-.21,1.36,1.36,0,0,1,.56-.07,1.64,1.64,0,0,1,1.32.49,2.29,2.29,0,0,1,.42,1.46v3.2h-1V75.2a2,2,0,0,0-.21-1,.77.77,0,0,0-.7-.35,1.53,1.53,0,0,0-.56.07,1.46,1.46,0,0,0-.42.28,1.4,1.4,0,0,0-.28.56,2.5,2.5,0,0,0-.14.77v2.58h-1V73Z"/><path class="cls-6" d="M683.24,73.88h-.77l-.07-.14,1.74-1.88h.07v1.25h1.32c0,.14.07.21.07.35v.42h-1.32v3a.53.53,0,0,0,.14.35l.21.21a3,3,0,0,0,.35.07h.35a.42.42,0,0,0,.28-.07.88.88,0,0,1,.07.42v.35c-.14,0-.28.07-.42.07h-.49a1.77,1.77,0,0,1-1.11-.35,1.43,1.43,0,0,1-.42-1.18V73.88Z"/><path class="cls-6" d="M687.28,75.83a1.7,1.7,0,0,0,.42,1.25,1.64,1.64,0,0,0,1.18.42,2.83,2.83,0,0,0,1.32-.28c.07.07.07.21.14.35s.07.28.07.42l-.7.21a3.39,3.39,0,0,1-.84.07,3,3,0,0,1-1.18-.21,1.78,1.78,0,0,1-.84-.56,2.41,2.41,0,0,1-.49-.84,4,4,0,0,1,0-2.09,1.59,1.59,0,0,1,.42-.84,2.18,2.18,0,0,1,.77-.56,2.33,2.33,0,0,1,1-.21,1.93,1.93,0,0,1,.91.21,2.5,2.5,0,0,1,.7.49,1.66,1.66,0,0,1,.42.77,4.08,4.08,0,0,1,.14.91v.56h-3.48Zm2.58-.7a1.53,1.53,0,0,0-.07-.56,2.32,2.32,0,0,0-.21-.42.7.7,0,0,0-.35-.28,1.31,1.31,0,0,0-.56-.14,1.2,1.2,0,0,0-.91.35,2.06,2.06,0,0,0-.42,1Z"/><path class="cls-6" d="M692.09,73h.84a2.46,2.46,0,0,1,.07.42v.42a2.12,2.12,0,0,1,.56-.56,1.55,1.55,0,0,1,.91-.28h.28v1h-.28a1,1,0,0,0-.49.07,1.46,1.46,0,0,0-.42.28,1.12,1.12,0,0,0-.28.49,2.6,2.6,0,0,0-.14.84V78.2h-.91V73Z"/><path class="cls-6" d="M704.49,64.75V78.41h-2.93l-1.74-6.2v6.2H697V64.75h2.79l1.88,6.13V64.75Z"/><path class="cls-6" d="M712.85,64.75l-2.44,8.71v4.95h-3.07V73.46L705,64.75h3.07c.49,2.65.77,4.46.84,5.36.21-1.46.49-3.27.91-5.36Z"/><path class="cls-5" d="M334.72,70.13a15.49,15.49,0,0,1,1.14-5.81,16.89,16.89,0,0,1,2.84-4.55,26.58,26.58,0,0,1,4-3.69q2.21-1.67,4.55-3.22t4.64-3.16A30.73,30.73,0,0,0,356,46.26a13.7,13.7,0,0,0,2.75-3.76,10.58,10.58,0,0,0,.92-4.58,8.86,8.86,0,0,0-.79-3.82,8.48,8.48,0,0,0-2.15-2.84,9.32,9.32,0,0,0-3.16-1.77,12,12,0,0,0-3.82-.6,9.88,9.88,0,0,0-4.64,1A8.68,8.68,0,0,0,342,32.62a11.4,11.4,0,0,0-1.74,3.91,17.78,17.78,0,0,0-.47,4.67h-4a20.66,20.66,0,0,1,.79-6.28,13.48,13.48,0,0,1,2.62-5,12,12,0,0,1,4.45-3.25,15.65,15.65,0,0,1,6.28-1.17,17.82,17.82,0,0,1,5.4.79,12.79,12.79,0,0,1,4.36,2.34,10.57,10.57,0,0,1,2.9,3.88,13.23,13.23,0,0,1,1,5.43,13.41,13.41,0,0,1-.92,5.05,16,16,0,0,1-2.46,4.17,24.28,24.28,0,0,1-3.54,3.5,43.25,43.25,0,0,1-4.2,3q-1.58,1.07-3.73,2.37A39.31,39.31,0,0,0,344.67,59a22.66,22.66,0,0,0-3.5,3.44,8.72,8.72,0,0,0-1.89,4.07h24.56v3.66Z"/><path class="cls-5" d="M393,27.67a14.67,14.67,0,0,1,4.67,5.4,23.73,23.73,0,0,1,2.27,7.32,52.58,52.58,0,0,1,0,15.85,23.71,23.71,0,0,1-2.27,7.33A14.4,14.4,0,0,1,393,68.93a15.81,15.81,0,0,1-15.69,0,14.28,14.28,0,0,1-4.71-5.37,23.67,23.67,0,0,1-2.27-7.33,52.67,52.67,0,0,1,0-15.85,23.69,23.69,0,0,1,2.27-7.32,14.55,14.55,0,0,1,4.71-5.4,15.61,15.61,0,0,1,15.69,0Zm-13.92,3.19a12.42,12.42,0,0,0-3.44,4.86A23.93,23.93,0,0,0,374.06,42a56.88,56.88,0,0,0-.38,6.25,56.5,56.5,0,0,0,.38,6.28,24.33,24.33,0,0,0,1.55,6.31,12.37,12.37,0,0,0,3.44,4.89,10.37,10.37,0,0,0,12.12,0,12.38,12.38,0,0,0,3.44-4.89,24.37,24.37,0,0,0,1.55-6.31,56.5,56.5,0,0,0,.38-6.28,56.88,56.88,0,0,0-.38-6.25,24,24,0,0,0-1.55-6.31,12.43,12.43,0,0,0-3.44-4.86,10.37,10.37,0,0,0-12.12,0Z"/><path class="cls-5" d="M413.5,34.17a10,10,0,0,0,3.66-1,6.82,6.82,0,0,0,2.59-2.49,12.38,12.38,0,0,0,1.48-4.7h3.22v44.2h-4V37.29H408.79V34.45Q411.38,34.39,413.5,34.17Z"/><path class="cls-5" d="M462.75,31.17a8.83,8.83,0,0,0-6.28-2.27,9.58,9.58,0,0,0-6.25,2,13.18,13.18,0,0,0-3.73,4.93,22.7,22.7,0,0,0-1.77,6.41,50.91,50.91,0,0,0-.44,6.47h.13a13.1,13.1,0,0,1,11.75-7.32,15.73,15.73,0,0,1,6,1.1,13.37,13.37,0,0,1,4.58,3.06,13.68,13.68,0,0,1,2.94,4.67,16.44,16.44,0,0,1,1,5.94,15.85,15.85,0,0,1-1.11,6,13.78,13.78,0,0,1-7.83,7.83,16,16,0,0,1-6,1.1,17.74,17.74,0,0,1-6.95-1.23,10.88,10.88,0,0,1-4.8-4,19.87,19.87,0,0,1-2.81-7.23,55.47,55.47,0,0,1-.92-11q0-1.33.16-3.47a29.7,29.7,0,0,1,.73-4.58,31.3,31.3,0,0,1,1.61-4.93,16.83,16.83,0,0,1,2.78-4.51,13.32,13.32,0,0,1,4.33-3.28,14,14,0,0,1,6.19-1.26q5.94,0,9.41,2.84t4.17,8.71h-4A9.66,9.66,0,0,0,462.75,31.17ZM451.45,45.6A10.21,10.21,0,0,0,448,48.09a10.59,10.59,0,0,0-2.15,3.69,14,14,0,0,0-.73,4.58,15.17,15.17,0,0,0,.63,4.42,9.68,9.68,0,0,0,2,3.63,9.33,9.33,0,0,0,3.44,2.43,12.72,12.72,0,0,0,5,.88,10,10,0,0,0,4.33-.92A10.66,10.66,0,0,0,466,60.72a12.66,12.66,0,0,0,.76-4.36,14.09,14.09,0,0,0-.73-4.55,11.12,11.12,0,0,0-2.08-3.73,9.72,9.72,0,0,0-3.35-2.49,10.69,10.69,0,0,0-4.52-.92A11.28,11.28,0,0,0,451.45,45.6Z"/><rect class="cls-5" x="309.97" y="25.51" width="3.15" height="43.87"/></g></g></svg>