<?xml version="1.0" encoding="utf-8"?>
<!-- Generator: Adobe Illustrator 19.1.0, SVG Export Plug-In . SVG Version: 6.00 Build 0)  -->
<!DOCTYPE svg PUBLIC "-//W3C//DTD SVG 1.1//EN" "http://www.w3.org/Graphics/SVG/1.1/DTD/svg11.dtd">
<svg version="1.1" id="Layer_1" xmlns="http://www.w3.org/2000/svg" xmlns:xlink="http://www.w3.org/1999/xlink" x="0px" y="0px"
	 viewBox="0 0 499.9 154.5" enable-background="new 0 0 499.9 154.5" xml:space="preserve">
<g>
	<g opacity="0.5">
		<polygon fill="#333333" points="20.2,0 39.5,11.2 58.8,0 78.1,11.1 39.5,33.5 0.8,10.8 		"/>
	</g>
	<g>
		<polygon fill="#09BCD4" points="20.2,0 39.5,11.2 58.8,0 78.1,11.1 39.5,33.5 0.8,10.8 		"/>
	</g>
</g>
<g>
	<g opacity="0.5">
		<polygon fill="#333333" points="79,35.4 59.7,46.5 59.7,68.8 40.4,80 40.4,35.4 79.3,13.2 		"/>
	</g>
	<g>
		<polygon fill="#01838F" points="79,35.4 59.7,46.5 59.7,68.8 40.4,80 40.4,35.4 79.3,13.2 		"/>
	</g>
</g>
<g>
	<g opacity="0.5">
		<polygon fill="#333333" points="19.3,68.6 19.3,46.3 0,35.1 0,12.8 38.7,35.2 38.3,80 		"/>
	</g>
	<g>
		<polygon fill="#09BCD4" points="19.3,68.6 19.3,46.3 0,35.1 0,12.8 38.7,35.2 38.3,80 		"/>
	</g>
</g>
<g>
	<g opacity="0.5">
		<text transform="matrix(1 0 0 1 86.0083 73.2168)" fill="#333333" font-family="'Roboto-Medium'" font-size="37.4786px">NEW YORK</text>
	</g>
	<g>
		<text transform="matrix(1 0 0 1 86.0083 73.2168)" fill="#09BCD4" font-family="'Roboto-Medium'" font-size="37.4786px">NEW YORK</text>
	</g>
</g>
<g>
	<g opacity="0.5">
		<text transform="matrix(1 0 0 1 86.0086 40.1571)" fill="#333333" font-family="'Roboto-Medium'" font-size="37.4786px">YOUTH FORUM</text>
	</g>
	<g>
		<text transform="matrix(1 0 0 1 86.0086 40.1571)" fill="#09BCD4" font-family="'Roboto-Medium'" font-size="37.4786px">YOUTH FORUM</text>
	</g>
</g>
<text transform="matrix(1 0 0 1 392.9668 125.0909)" fill="#FFFFFF" font-family="'Roboto-Bold'" font-size="12px">ORGANIZED BY</text>
<g>
	<g>
		<path fill="#FFFFFF" d="M413.6,131.3c0.3,0,0.5,0,0.7-0.1c0.2,0,0.4,0,0.7-0.1c0.2,0,0.4,0,0.7,0c0.2,0,0.5,0,0.8,0
			c0.6,0,1.2,0.1,1.9,0.2c0.6,0.1,1.2,0.3,1.6,0.6c0.5,0.3,0.9,0.7,1.2,1.2c0.3,0.5,0.5,1.2,0.5,2c0,0.5-0.1,0.9-0.2,1.3
			c-0.2,0.4-0.4,0.7-0.6,1.1c-0.2,0.3-0.5,0.6-0.8,0.8c-0.3,0.2-0.6,0.4-0.9,0.6l-0.2,0.1l3.9,5.6c-0.3,0-0.7,0.1-1.1,0.1
			c-0.3,0-0.7,0-1-0.1l-4.2-6.1v-0.1l0.1,0c0.3-0.1,0.7-0.2,1.1-0.4c0.4-0.1,0.7-0.3,1-0.6c0.3-0.2,0.6-0.5,0.8-0.9
			c0.2-0.3,0.3-0.7,0.3-1.2c0-0.9-0.3-1.5-0.8-2c-0.5-0.4-1.2-0.6-2.1-0.6c-0.2,0-0.4,0-0.6,0c-0.2,0-0.4,0-0.6,0.1v11.8
			c-0.1,0-0.3,0-0.5,0c-0.2,0-0.3,0-0.5,0c-0.1,0-0.3,0-0.5,0c-0.2,0-0.3,0-0.5,0V131.3z"/>
		<path fill="#FFFFFF" d="M424.4,135.1c0.1,0,0.3,0,0.5-0.1c0.2,0,0.3,0,0.4,0c0.1,0,0.3,0,0.5,0c0.2,0,0.3,0,0.5,0.1v5.2
			c0,0.6,0.1,1.1,0.2,1.5c0.1,0.4,0.3,0.7,0.5,0.9c0.2,0.2,0.5,0.4,0.8,0.5c0.3,0.1,0.7,0.1,1.1,0.1c0.6,0,1.2-0.1,1.6-0.2v-7.9
			c0.1,0,0.3,0,0.5-0.1c0.2,0,0.3,0,0.5,0c0.1,0,0.3,0,0.5,0c0.2,0,0.3,0,0.5,0.1v9.2c-0.4,0.1-0.9,0.2-1.5,0.4
			c-0.6,0.1-1.2,0.2-1.9,0.2c-0.6,0-1.2-0.1-1.7-0.2c-0.5-0.1-1-0.3-1.4-0.6c-0.4-0.3-0.7-0.8-1-1.3c-0.2-0.6-0.4-1.3-0.4-2.3V135.1
			z"/>
		<path fill="#FFFFFF" d="M434.9,142.9c0.3,0.1,0.7,0.2,1.1,0.3c0.4,0.1,0.8,0.1,1.2,0.1c0.3,0,0.6,0,0.8-0.1
			c0.3-0.1,0.5-0.2,0.7-0.3c0.2-0.1,0.3-0.3,0.5-0.5c0.1-0.2,0.2-0.4,0.2-0.6c0-0.2,0-0.4-0.1-0.6c-0.1-0.2-0.2-0.3-0.4-0.4
			c-0.2-0.1-0.3-0.2-0.5-0.3c-0.2-0.1-0.4-0.2-0.7-0.2l-0.6-0.2c-0.8-0.3-1.4-0.6-1.7-1c-0.4-0.4-0.5-0.9-0.5-1.5
			c0-0.8,0.3-1.5,0.9-2c0.6-0.5,1.5-0.7,2.6-0.7c0.5,0,0.9,0,1.4,0.1c0.5,0.1,0.9,0.2,1.2,0.3c0,0.2-0.1,0.5-0.1,0.7
			c-0.1,0.2-0.2,0.5-0.2,0.7c-0.3-0.1-0.6-0.2-1-0.3c-0.4-0.1-0.8-0.1-1.2-0.1c-0.5,0-0.9,0.1-1.2,0.2c-0.4,0.2-0.5,0.4-0.5,0.8
			c0,0.2,0,0.4,0.1,0.5c0.1,0.1,0.2,0.3,0.4,0.4c0.1,0.1,0.3,0.2,0.5,0.3c0.2,0.1,0.4,0.1,0.6,0.2l0.8,0.3c0.3,0.1,0.6,0.2,0.8,0.4
			c0.3,0.1,0.5,0.3,0.7,0.5c0.2,0.2,0.3,0.4,0.5,0.7c0.1,0.3,0.2,0.6,0.2,1c0,0.5-0.1,0.9-0.3,1.2c-0.2,0.4-0.4,0.7-0.8,1
			c-0.3,0.3-0.7,0.5-1.2,0.6c-0.5,0.1-1,0.2-1.6,0.2c-0.6,0-1.1,0-1.5-0.1c-0.4-0.1-0.9-0.2-1.2-0.3c0-0.2,0.1-0.5,0.2-0.7
			C434.7,143.4,434.8,143.1,434.9,142.9z"/>
		<path fill="#FFFFFF" d="M442.8,142.9c0.3,0.1,0.7,0.2,1.1,0.3c0.4,0.1,0.8,0.1,1.2,0.1c0.3,0,0.6,0,0.8-0.1
			c0.3-0.1,0.5-0.2,0.7-0.3c0.2-0.1,0.3-0.3,0.5-0.5c0.1-0.2,0.2-0.4,0.2-0.6c0-0.2,0-0.4-0.1-0.6c-0.1-0.2-0.2-0.3-0.4-0.4
			c-0.2-0.1-0.3-0.2-0.5-0.3c-0.2-0.1-0.4-0.2-0.7-0.2l-0.6-0.2c-0.8-0.3-1.4-0.6-1.7-1c-0.4-0.4-0.5-0.9-0.5-1.5
			c0-0.8,0.3-1.5,0.9-2c0.6-0.5,1.5-0.7,2.6-0.7c0.5,0,0.9,0,1.4,0.1c0.5,0.1,0.9,0.2,1.2,0.3c0,0.2-0.1,0.5-0.1,0.7
			c-0.1,0.2-0.2,0.5-0.2,0.7c-0.3-0.1-0.6-0.2-1-0.3c-0.4-0.1-0.8-0.1-1.2-0.1c-0.5,0-0.9,0.1-1.2,0.2c-0.4,0.2-0.5,0.4-0.5,0.8
			c0,0.2,0,0.4,0.1,0.5c0.1,0.1,0.2,0.3,0.4,0.4c0.1,0.1,0.3,0.2,0.5,0.3c0.2,0.1,0.4,0.1,0.6,0.2l0.8,0.3c0.3,0.1,0.6,0.2,0.8,0.4
			c0.3,0.1,0.5,0.3,0.7,0.5c0.2,0.2,0.3,0.4,0.5,0.7c0.1,0.3,0.2,0.6,0.2,1c0,0.5-0.1,0.9-0.3,1.2c-0.2,0.4-0.4,0.7-0.8,1
			c-0.3,0.3-0.7,0.5-1.2,0.6c-0.5,0.1-1,0.2-1.6,0.2c-0.6,0-1.1,0-1.5-0.1c-0.4-0.1-0.9-0.2-1.2-0.3c0-0.2,0.1-0.5,0.2-0.7
			C442.6,143.4,442.7,143.1,442.8,142.9z"/>
		<path fill="#FFFFFF" d="M451.9,136.5h-1.2c0-0.1,0-0.2-0.1-0.3c0-0.1,0-0.3,0-0.4c0-0.1,0-0.2,0-0.4c0-0.1,0-0.2,0.1-0.3h3v9.5
			c-0.1,0-0.3,0-0.5,0.1c-0.2,0-0.3,0-0.5,0c-0.1,0-0.3,0-0.4,0c-0.2,0-0.3,0-0.5-0.1V136.5z M451.5,133c0-0.1,0-0.3,0-0.5
			c0-0.2,0-0.3,0-0.5c0-0.1,0-0.3,0-0.5c0-0.2,0-0.3,0-0.5c0.2,0,0.3,0,0.5-0.1c0.2,0,0.3,0,0.5,0c0.1,0,0.3,0,0.5,0
			c0.2,0,0.4,0,0.5,0.1c0,0.1,0,0.3,0,0.5c0,0.2,0,0.3,0,0.5c0,0.1,0,0.3,0,0.5c0,0.2,0,0.3,0,0.5c-0.1,0-0.3,0-0.5,0.1
			c-0.2,0-0.3,0-0.5,0c-0.1,0-0.3,0-0.5,0C451.8,133.1,451.7,133.1,451.5,133z"/>
		<path fill="#FFFFFF" d="M461.7,138.3c0-0.7-0.2-1.2-0.6-1.5c-0.4-0.3-0.9-0.4-1.6-0.4c-0.4,0-0.8,0-1.2,0.1
			c-0.4,0.1-0.7,0.2-1.1,0.3c-0.2-0.4-0.4-0.9-0.4-1.5c0.4-0.1,0.9-0.2,1.4-0.3c0.5-0.1,1-0.1,1.5-0.1c1.2,0,2.2,0.3,2.8,0.8
			c0.6,0.6,1,1.5,1,2.7v5.9c-0.4,0.1-1,0.2-1.6,0.3c-0.6,0.1-1.2,0.2-1.9,0.2c-0.6,0-1.1-0.1-1.6-0.2c-0.5-0.1-0.9-0.3-1.2-0.5
			c-0.3-0.2-0.6-0.6-0.8-0.9c-0.2-0.4-0.3-0.8-0.3-1.4c0-0.5,0.1-1,0.3-1.4c0.2-0.4,0.5-0.7,0.9-1c0.4-0.3,0.8-0.5,1.3-0.6
			c0.5-0.1,1-0.2,1.5-0.2c0.4,0,0.7,0,1,0c0.3,0,0.5,0,0.6,0.1V138.3z M461.7,140.1c-0.2,0-0.4,0-0.7-0.1c-0.3,0-0.5,0-0.7,0
			c-0.8,0-1.3,0.1-1.7,0.4c-0.4,0.3-0.6,0.7-0.6,1.3c0,0.4,0.1,0.7,0.2,0.9c0.1,0.2,0.3,0.4,0.5,0.5c0.2,0.1,0.4,0.2,0.7,0.2
			c0.2,0,0.5,0,0.7,0c0.3,0,0.6,0,0.9,0c0.3,0,0.6-0.1,0.8-0.1V140.1z"/>
		<path fill="#FFFFFF" d="M466.2,135.1c0.1,0,0.3,0,0.4-0.1c0.1,0,0.3,0,0.4,0c0.1,0,0.3,0,0.4,0c0.1,0,0.2,0,0.4,0.1
			c0,0.2,0.1,0.4,0.1,0.7c0,0.3,0.1,0.6,0.1,0.8c0.1-0.2,0.3-0.4,0.5-0.6c0.2-0.2,0.4-0.4,0.7-0.6c0.2-0.2,0.5-0.3,0.8-0.4
			c0.3-0.1,0.7-0.2,1.1-0.2c1.1,0,1.9,0.3,2.4,0.9c0.5,0.6,0.8,1.5,0.8,2.8v6c-0.1,0-0.3,0-0.5,0.1c-0.2,0-0.3,0-0.5,0
			c-0.1,0-0.3,0-0.5,0c-0.2,0-0.3,0-0.5-0.1v-5.5c0-0.9-0.1-1.5-0.4-1.9c-0.3-0.4-0.7-0.6-1.3-0.6c-0.3,0-0.7,0.1-1,0.2
			c-0.3,0.1-0.6,0.3-0.8,0.6s-0.4,0.6-0.6,1c-0.1,0.4-0.2,0.9-0.2,1.5v4.8c-0.1,0-0.3,0-0.5,0.1c-0.2,0-0.3,0-0.5,0s-0.3,0-0.5,0
			c-0.2,0-0.3,0-0.5-0.1V135.1z"/>
	</g>
	<g>
		<path fill="#FFFFFF" d="M439.2,153c0.1,0.1,0.1,0.3,0.2,0.5c0.1,0.2,0.1,0.4,0.1,0.6c-0.6,0.2-1.2,0.3-1.9,0.3
			c-1.2,0-2.1-0.3-2.8-1c-0.6-0.7-0.9-1.6-0.9-2.8c0-0.5,0.1-1,0.2-1.5c0.2-0.5,0.4-0.9,0.7-1.2c0.3-0.3,0.7-0.6,1.1-0.8
			c0.4-0.2,1-0.3,1.6-0.3c0.4,0,0.8,0,1.1,0.1c0.3,0,0.6,0.1,0.9,0.2c0,0.2,0,0.3-0.1,0.6c0,0.2-0.1,0.4-0.2,0.6
			c-0.5-0.2-1-0.2-1.6-0.2c-0.7,0-1.3,0.2-1.6,0.7c-0.4,0.5-0.5,1.1-0.5,1.9c0,0.9,0.2,1.6,0.6,2c0.4,0.4,1,0.6,1.7,0.6
			c0.3,0,0.5,0,0.8-0.1C438.7,153.1,439,153.1,439.2,153z"/>
		<path fill="#FFFFFF" d="M442,150.9c0,0.8,0.2,1.4,0.6,1.8c0.4,0.4,1,0.6,1.7,0.6c0.7,0,1.3-0.1,1.9-0.4c0.1,0.1,0.1,0.3,0.2,0.5
			c0,0.2,0.1,0.4,0.1,0.6c-0.3,0.1-0.7,0.2-1,0.3c-0.4,0.1-0.8,0.1-1.2,0.1c-0.7,0-1.2-0.1-1.7-0.3c-0.5-0.2-0.9-0.4-1.2-0.8
			c-0.3-0.3-0.5-0.7-0.7-1.2c-0.1-0.5-0.2-1-0.2-1.5c0-0.5,0.1-1,0.2-1.5c0.1-0.5,0.3-0.9,0.6-1.2c0.3-0.3,0.6-0.6,1.1-0.8
			c0.4-0.2,0.9-0.3,1.5-0.3c0.5,0,0.9,0.1,1.3,0.3c0.4,0.2,0.7,0.4,1,0.7c0.3,0.3,0.5,0.7,0.6,1.1c0.1,0.4,0.2,0.9,0.2,1.3
			c0,0.1,0,0.3,0,0.4c0,0.1,0,0.3,0,0.4H442z M445.6,149.9c0-0.3,0-0.5-0.1-0.8c-0.1-0.2-0.2-0.5-0.3-0.6c-0.1-0.2-0.3-0.3-0.5-0.4
			c-0.2-0.1-0.5-0.2-0.8-0.2c-0.6,0-1,0.2-1.3,0.5c-0.3,0.4-0.5,0.8-0.6,1.5H445.6z"/>
		<path fill="#FFFFFF" d="M448.8,146.9c0.1,0,0.2,0,0.3,0c0.1,0,0.2,0,0.3,0c0.1,0,0.2,0,0.3,0c0.1,0,0.2,0,0.3,0
			c0,0.1,0.1,0.3,0.1,0.6c0,0.2,0,0.4,0,0.6c0.1-0.2,0.2-0.3,0.4-0.5c0.1-0.2,0.3-0.3,0.5-0.4c0.2-0.1,0.4-0.2,0.7-0.3
			c0.2-0.1,0.5-0.1,0.8-0.1c0.8,0,1.5,0.2,1.9,0.7c0.4,0.5,0.6,1.2,0.6,2.1v4.6c-0.1,0-0.2,0-0.4,0c-0.1,0-0.3,0-0.4,0
			c-0.1,0-0.2,0-0.3,0c-0.1,0-0.2,0-0.3,0V150c0-0.7-0.1-1.2-0.3-1.5c-0.2-0.3-0.5-0.5-1-0.5c-0.3,0-0.5,0-0.8,0.1
			c-0.2,0.1-0.4,0.2-0.6,0.4c-0.2,0.2-0.3,0.5-0.4,0.8c-0.1,0.3-0.2,0.7-0.2,1.1v3.7c-0.1,0-0.2,0-0.3,0c-0.1,0-0.2,0-0.3,0
			c-0.1,0-0.2,0-0.4,0c-0.1,0-0.3,0-0.4,0V146.9z"/>
		<path fill="#FFFFFF" d="M457.4,148.1h-1.1l-0.1-0.2l2.5-2.7h0.1v1.8h1.9c0,0.2,0.1,0.3,0.1,0.5c0,0.1,0,0.2,0,0.3
			c0,0.1,0,0.2,0,0.3h-1.9v3.3c0,0.4,0,0.7,0,1c0,0.2,0.1,0.4,0.2,0.5c0.1,0.1,0.2,0.2,0.3,0.3c0.1,0,0.3,0.1,0.5,0.1
			c0.2,0,0.3,0,0.5,0c0.1,0,0.3,0,0.4-0.1c0.1,0.2,0.1,0.4,0.1,0.6c0,0.2,0,0.4,0,0.5c-0.2,0-0.4,0.1-0.6,0.1c-0.2,0-0.4,0-0.7,0
			c-0.7,0-1.2-0.2-1.6-0.5c-0.4-0.3-0.6-0.9-0.6-1.7V148.1z"/>
		<path fill="#FFFFFF" d="M463.2,150.9c0,0.8,0.2,1.4,0.6,1.8c0.4,0.4,1,0.6,1.7,0.6c0.7,0,1.3-0.1,1.9-0.4c0.1,0.1,0.1,0.3,0.2,0.5
			c0,0.2,0.1,0.4,0.1,0.6c-0.3,0.1-0.7,0.2-1,0.3c-0.4,0.1-0.8,0.1-1.2,0.1c-0.7,0-1.2-0.1-1.7-0.3c-0.5-0.2-0.9-0.4-1.2-0.8
			c-0.3-0.3-0.5-0.7-0.7-1.2c-0.1-0.5-0.2-1-0.2-1.5c0-0.5,0.1-1,0.2-1.5c0.1-0.5,0.3-0.9,0.6-1.2c0.3-0.3,0.6-0.6,1.1-0.8
			c0.4-0.2,0.9-0.3,1.5-0.3c0.5,0,0.9,0.1,1.3,0.3c0.4,0.2,0.7,0.4,1,0.7c0.3,0.3,0.5,0.7,0.6,1.1c0.1,0.4,0.2,0.9,0.2,1.3
			c0,0.1,0,0.3,0,0.4c0,0.1,0,0.3,0,0.4H463.2z M466.9,149.9c0-0.3,0-0.5-0.1-0.8c-0.1-0.2-0.2-0.5-0.3-0.6
			c-0.1-0.2-0.3-0.3-0.5-0.4c-0.2-0.1-0.5-0.2-0.8-0.2c-0.6,0-1,0.2-1.3,0.5c-0.3,0.4-0.5,0.8-0.6,1.5H466.9z"/>
		<path fill="#FFFFFF" d="M470.1,146.9c0.1,0,0.2,0,0.3,0c0.1,0,0.2,0,0.3,0c0.1,0,0.2,0,0.3,0c0.1,0,0.2,0,0.3,0
			c0,0.1,0.1,0.3,0.1,0.6c0,0.2,0,0.4,0,0.6c0.2-0.3,0.5-0.6,0.8-0.8c0.3-0.2,0.7-0.4,1.3-0.4c0.1,0,0.2,0,0.2,0c0.1,0,0.1,0,0.2,0
			c0,0.1,0,0.2,0,0.3c0,0.1,0,0.2,0,0.3c0,0.1,0,0.2,0,0.4c0,0.1,0,0.2,0,0.4c-0.1,0-0.2,0-0.2,0c-0.1,0-0.1,0-0.2,0
			c-0.3,0-0.5,0-0.7,0.1c-0.2,0.1-0.4,0.2-0.6,0.4c-0.2,0.2-0.3,0.4-0.4,0.7c-0.1,0.3-0.2,0.7-0.2,1.2v3.6c-0.1,0-0.2,0-0.3,0
			c-0.1,0-0.2,0-0.3,0c-0.1,0-0.2,0-0.3,0c-0.1,0-0.2,0-0.4,0V146.9z"/>
	</g>
	<g>
		<path fill="#FFFFFF" d="M487.9,135v19.6h-4.2l-2.5-8.9v8.9h-4V135h4l2.7,8.8V135H487.9z"/>
		<path fill="#FFFFFF" d="M499.9,135l-3.5,12.5v7.1h-4.4v-7.1l-3.3-12.5h4.4c0.7,3.8,1.1,6.4,1.2,7.7c0.3-2.1,0.7-4.7,1.3-7.7H499.9
			z"/>
	</g>
</g>
</svg>
