<?xml version="1.0" encoding="utf-8"?>
<!-- Generator: Adobe Illustrator 19.1.0, SVG Export Plug-In . SVG Version: 6.00 Build 0)  -->
<!DOCTYPE svg PUBLIC "-//W3C//DTD SVG 1.1//EN" "http://www.w3.org/Graphics/SVG/1.1/DTD/svg11.dtd">
<svg version="1.1" id="Layer_1" xmlns="http://www.w3.org/2000/svg" xmlns:xlink="http://www.w3.org/1999/xlink" x="0px" y="0px"
	 viewBox="0 0 517 154.5" enable-background="new 0 0 517 154.5" xml:space="preserve">
<g>
	<g opacity="0.5">
		<polygon fill="#333333" points="20.2,0 39.5,11.2 58.8,0 78.1,11.1 39.5,33.5 0.8,10.8 		"/>
	</g>
	<g>
		<polygon fill="#09BCD4" points="20.2,0 39.5,11.2 58.8,0 78.1,11.1 39.5,33.5 0.8,10.8 		"/>
	</g>
</g>
<g>
	<g opacity="0.5">
		<polygon fill="#333333" points="79,35.4 59.7,46.5 59.7,68.8 40.4,80 40.4,35.4 79.3,13.2 		"/>
	</g>
	<g>
		<polygon fill="#01838F" points="79,35.4 59.7,46.5 59.7,68.8 40.4,80 40.4,35.4 79.3,13.2 		"/>
	</g>
</g>
<g>
	<g opacity="0.5">
		<polygon fill="#333333" points="19.3,68.6 19.3,46.3 0,35.1 0,12.8 38.7,35.2 38.3,80 		"/>
	</g>
	<g>
		<polygon fill="#09BCD4" points="19.3,68.6 19.3,46.3 0,35.1 0,12.8 38.7,35.2 38.3,80 		"/>
	</g>
</g>
<g>
	<g opacity="0.5">
		<path fill="#333333" d="M109.7,73.2h-4.4L93.5,53.8l-0.1,0v19.4h-4.4V46.6h4.4L105.2,66l0.1,0V46.6h4.4V73.2z"/>
		<path fill="#333333" d="M131.7,61.2H120v8.4h13.5v3.6h-18V46.6h17.8v3.6H120v7.5h11.7V61.2z"/>
		<path fill="#333333" d="M143.7,66.1L143.7,66.1L143.7,66.1l5.3-19.5h3.6l5.4,19.5l0,0.1l0-0.2l4.2-19.5h4.4l-6.3,26.6h-4
			l-5.3-19.1h-0.1l-5.3,19.1h-4.1l-6.3-26.6h4.4L143.7,66.1z"/>
		<path fill="#333333" d="M188.5,59.5l6.4-13h5l-9.2,17.3v9.4h-4.4v-9.6l-9.1-17.1h5L188.5,59.5z"/>
		<path fill="#333333" d="M223.2,62.3c0,3.3-1,6-3.1,8.1c-2,2.1-4.7,3.2-8,3.2c-3.2,0-5.8-1.1-7.8-3.2c-2-2.1-3-4.8-3-8.1v-4.8
			c0-3.2,1-5.9,3-8.1c2-2.1,4.6-3.2,7.8-3.2c3.3,0,5.9,1.1,8,3.2c2,2.1,3.1,4.8,3.1,8.1V62.3z M218.8,57.5c0-2.2-0.6-4-1.8-5.5
			s-2.8-2.1-4.8-2.1c-2,0-3.5,0.7-4.6,2.1s-1.7,3.3-1.7,5.5v4.8c0,2.2,0.6,4.1,1.7,5.5s2.7,2.1,4.6,2.1c2,0,3.6-0.7,4.8-2.1
			c1.2-1.4,1.8-3.3,1.8-5.5V57.5z"/>
		<path fill="#333333" d="M232.5,62.2v11.1H228V46.6h9.8c3,0,5.3,0.7,6.9,2c1.6,1.3,2.4,3.3,2.4,5.7c0,1.4-0.4,2.6-1.1,3.6
			s-1.8,1.8-3.1,2.4c1.5,0.5,2.6,1.3,3.2,2.3c0.7,1.1,1,2.4,1,4v2.2c0,0.8,0.1,1.5,0.3,2.3c0.2,0.7,0.5,1.3,1,1.7v0.4H244
			c-0.5-0.4-0.8-1-0.9-1.9c-0.1-0.9-0.2-1.7-0.2-2.5v-2.1c0-1.4-0.4-2.5-1.2-3.3c-0.8-0.8-1.9-1.2-3.2-1.2H232.5z M232.5,58.6h5.2
			c1.8,0,3.1-0.3,3.9-1s1.2-1.7,1.2-3.1c0-1.3-0.4-2.4-1.2-3.2c-0.8-0.8-2-1.1-3.7-1.1h-5.4V58.6z"/>
		<path fill="#333333" d="M260.4,61.7h-3.1v11.5h-4.4V46.6h4.4v11.3h2.5l8.4-11.3h5.3l-9.7,12.7l10.4,13.9h-5.4L260.4,61.7z"/>
	</g>
	<g>
		<g>
			<path fill="#09BCD4" d="M109.7,73.2h-4.4L93.5,53.8l-0.1,0v19.4h-4.4V46.6h4.4L105.2,66l0.1,0V46.6h4.4V73.2z"/>
			<path fill="#09BCD4" d="M131.7,61.2H120v8.4h13.5v3.6h-18V46.6h17.8v3.6H120v7.5h11.7V61.2z"/>
			<path fill="#09BCD4" d="M143.7,66.1L143.7,66.1L143.7,66.1l5.3-19.5h3.6l5.4,19.5l0,0.1l0-0.2l4.2-19.5h4.4l-6.3,26.6h-4
				l-5.3-19.1h-0.1l-5.3,19.1h-4.1l-6.3-26.6h4.4L143.7,66.1z"/>
			<path fill="#09BCD4" d="M188.5,59.5l6.4-13h5l-9.2,17.3v9.4h-4.4v-9.6l-9.1-17.1h5L188.5,59.5z"/>
			<path fill="#09BCD4" d="M223.2,62.3c0,3.3-1,6-3.1,8.1c-2,2.1-4.7,3.2-8,3.2c-3.2,0-5.8-1.1-7.8-3.2c-2-2.1-3-4.8-3-8.1v-4.8
				c0-3.2,1-5.9,3-8.1c2-2.1,4.6-3.2,7.8-3.2c3.3,0,5.9,1.1,8,3.2c2,2.1,3.1,4.8,3.1,8.1V62.3z M218.8,57.5c0-2.2-0.6-4-1.8-5.5
				s-2.8-2.1-4.8-2.1c-2,0-3.5,0.7-4.6,2.1s-1.7,3.3-1.7,5.5v4.8c0,2.2,0.6,4.1,1.7,5.5s2.7,2.1,4.6,2.1c2,0,3.6-0.7,4.8-2.1
				c1.2-1.4,1.8-3.3,1.8-5.5V57.5z"/>
			<path fill="#09BCD4" d="M232.5,62.2v11.1H228V46.6h9.8c3,0,5.3,0.7,6.9,2c1.6,1.3,2.4,3.3,2.4,5.7c0,1.4-0.4,2.6-1.1,3.6
				s-1.8,1.8-3.1,2.4c1.5,0.5,2.6,1.3,3.2,2.3c0.7,1.1,1,2.4,1,4v2.2c0,0.8,0.1,1.5,0.3,2.3c0.2,0.7,0.5,1.3,1,1.7v0.4H244
				c-0.5-0.4-0.8-1-0.9-1.9c-0.1-0.9-0.2-1.7-0.2-2.5v-2.1c0-1.4-0.4-2.5-1.2-3.3c-0.8-0.8-1.9-1.2-3.2-1.2H232.5z M232.5,58.6h5.2
				c1.8,0,3.1-0.3,3.9-1s1.2-1.7,1.2-3.1c0-1.3-0.4-2.4-1.2-3.2c-0.8-0.8-2-1.1-3.7-1.1h-5.4V58.6z"/>
			<path fill="#09BCD4" d="M260.4,61.7h-3.1v11.5h-4.4V46.6h4.4v11.3h2.5l8.4-11.3h5.3l-9.7,12.7l10.4,13.9h-5.4L260.4,61.7z"/>
		</g>
	</g>
</g>
<g>
	<g opacity="0.5">
		<path fill="#333333" d="M97.6,26.5l6.4-13h5l-9.2,17.3v9.4h-4.4v-9.6l-9.1-17.1h5L97.6,26.5z"/>
		<path fill="#333333" d="M132.4,29.2c0,3.3-1,6-3.1,8.1c-2,2.1-4.7,3.2-8,3.2c-3.2,0-5.8-1.1-7.8-3.2s-3-4.8-3-8.1v-4.8
			c0-3.2,1-5.9,3-8.1c2-2.1,4.6-3.2,7.8-3.2c3.3,0,5.9,1.1,8,3.2c2,2.1,3.1,4.8,3.1,8.1V29.2z M127.9,24.4c0-2.2-0.6-4-1.8-5.5
			s-2.8-2.1-4.8-2.1c-2,0-3.5,0.7-4.6,2.1c-1.1,1.4-1.7,3.3-1.7,5.5v4.8c0,2.2,0.6,4.1,1.7,5.5c1.1,1.4,2.7,2.2,4.6,2.2
			c2,0,3.6-0.7,4.8-2.1c1.2-1.4,1.8-3.3,1.8-5.5V24.4z"/>
		<path fill="#333333" d="M157.4,13.5v17.9c0,3-1,5.2-2.9,6.8s-4.4,2.4-7.6,2.4c-3,0-5.5-0.8-7.4-2.4c-1.9-1.6-2.8-3.8-2.8-6.8V13.5
			h4.4v17.8c0,1.9,0.5,3.3,1.6,4.2c1,0.9,2.5,1.4,4.2,1.4c1.8,0,3.3-0.5,4.4-1.4c1.1-0.9,1.6-2.3,1.6-4.2V13.5H157.4z"/>
		<path fill="#333333" d="M180.9,17.1h-8.1v23.1h-4.4V17.1h-8.1v-3.6h20.6V17.1z"/>
		<path fill="#333333" d="M205.2,40.2h-4.4V28.8h-11.9v11.4h-4.4V13.5h4.4v11.7h11.9V13.5h4.4V40.2z"/>
		<path fill="#333333" d="M236.5,28.8h-11.7v11.4h-4.4V13.5h18v3.6h-13.5v8.1h11.7V28.8z"/>
		<path fill="#333333" d="M262.9,29.2c0,3.3-1,6-3.1,8.1c-2,2.1-4.7,3.2-8,3.2c-3.2,0-5.8-1.1-7.8-3.2s-3-4.8-3-8.1v-4.8
			c0-3.2,1-5.9,3-8.1c2-2.1,4.6-3.2,7.8-3.2c3.3,0,5.9,1.1,8,3.2c2,2.1,3.1,4.8,3.1,8.1V29.2z M258.5,24.4c0-2.2-0.6-4-1.8-5.5
			s-2.8-2.1-4.8-2.1c-2,0-3.5,0.7-4.6,2.1s-1.7,3.3-1.7,5.5v4.8c0,2.2,0.6,4.1,1.7,5.5s2.7,2.2,4.6,2.2c2,0,3.6-0.7,4.8-2.1
			c1.2-1.4,1.8-3.3,1.8-5.5V24.4z"/>
		<path fill="#333333" d="M272.2,29.1v11.1h-4.4V13.5h9.8c3,0,5.3,0.7,6.9,2c1.6,1.3,2.4,3.3,2.4,5.7c0,1.4-0.4,2.6-1.1,3.6
			s-1.8,1.8-3.1,2.4c1.5,0.5,2.6,1.3,3.2,2.3c0.7,1.1,1,2.4,1,4v2.2c0,0.8,0.1,1.5,0.3,2.3c0.2,0.7,0.5,1.3,1,1.7v0.4h-4.6
			c-0.5-0.4-0.8-1-0.9-1.9c-0.1-0.9-0.2-1.7-0.2-2.5v-2.1c0-1.4-0.4-2.5-1.2-3.3c-0.8-0.8-1.9-1.2-3.2-1.2H272.2z M272.2,25.5h5.2
			c1.8,0,3.1-0.3,3.9-1s1.2-1.7,1.2-3.1c0-1.3-0.4-2.4-1.2-3.2c-0.8-0.8-2-1.1-3.7-1.1h-5.4V25.5z"/>
		<path fill="#333333" d="M312.8,13.5v17.9c0,3-1,5.2-2.9,6.8s-4.4,2.4-7.6,2.4c-3,0-5.5-0.8-7.4-2.4c-1.9-1.6-2.8-3.8-2.8-6.8V13.5
			h4.4v17.8c0,1.9,0.5,3.3,1.6,4.2c1,0.9,2.5,1.4,4.2,1.4c1.8,0,3.3-0.5,4.4-1.4c1.1-0.9,1.6-2.3,1.6-4.2V13.5H312.8z"/>
		<path fill="#333333" d="M323.8,13.5l7.7,20.5h0.1l7.7-20.5h5.8v26.6h-4.4v-9.1l0.4-11.5l-0.1,0L333,40.2h-3l-7.9-20.6l-0.1,0
			l0.4,11.5v9.1h-4.4V13.5H323.8z"/>
	</g>
	<g>
		<g>
			<path fill="#09BCD4" d="M97.6,26.5l6.4-13h5l-9.2,17.3v9.4h-4.4v-9.6l-9.1-17.1h5L97.6,26.5z"/>
			<path fill="#09BCD4" d="M132.4,29.2c0,3.3-1,6-3.1,8.1c-2,2.1-4.7,3.2-8,3.2c-3.2,0-5.8-1.1-7.8-3.2s-3-4.8-3-8.1v-4.8
				c0-3.2,1-5.9,3-8.1c2-2.1,4.6-3.2,7.8-3.2c3.3,0,5.9,1.1,8,3.2c2,2.1,3.1,4.8,3.1,8.1V29.2z M127.9,24.4c0-2.2-0.6-4-1.8-5.5
				s-2.8-2.1-4.8-2.1c-2,0-3.5,0.7-4.6,2.1c-1.1,1.4-1.7,3.3-1.7,5.5v4.8c0,2.2,0.6,4.1,1.7,5.5c1.1,1.4,2.7,2.2,4.6,2.2
				c2,0,3.6-0.7,4.8-2.1c1.2-1.4,1.8-3.3,1.8-5.5V24.4z"/>
			<path fill="#09BCD4" d="M157.4,13.5v17.9c0,3-1,5.2-2.9,6.8s-4.4,2.4-7.6,2.4c-3,0-5.5-0.8-7.4-2.4c-1.9-1.6-2.8-3.8-2.8-6.8
				V13.5h4.4v17.8c0,1.9,0.5,3.3,1.6,4.2c1,0.9,2.5,1.4,4.2,1.4c1.8,0,3.3-0.5,4.4-1.4c1.1-0.9,1.6-2.3,1.6-4.2V13.5H157.4z"/>
			<path fill="#09BCD4" d="M180.9,17.1h-8.1v23.1h-4.4V17.1h-8.1v-3.6h20.6V17.1z"/>
			<path fill="#09BCD4" d="M205.2,40.2h-4.4V28.8h-11.9v11.4h-4.4V13.5h4.4v11.7h11.9V13.5h4.4V40.2z"/>
			<path fill="#09BCD4" d="M236.5,28.8h-11.7v11.4h-4.4V13.5h18v3.6h-13.5v8.1h11.7V28.8z"/>
			<path fill="#09BCD4" d="M262.9,29.2c0,3.3-1,6-3.1,8.1c-2,2.1-4.7,3.2-8,3.2c-3.2,0-5.8-1.1-7.8-3.2s-3-4.8-3-8.1v-4.8
				c0-3.2,1-5.9,3-8.1c2-2.1,4.6-3.2,7.8-3.2c3.3,0,5.9,1.1,8,3.2c2,2.1,3.1,4.8,3.1,8.1V29.2z M258.5,24.4c0-2.2-0.6-4-1.8-5.5
				s-2.8-2.1-4.8-2.1c-2,0-3.5,0.7-4.6,2.1s-1.7,3.3-1.7,5.5v4.8c0,2.2,0.6,4.1,1.7,5.5s2.7,2.2,4.6,2.2c2,0,3.6-0.7,4.8-2.1
				c1.2-1.4,1.8-3.3,1.8-5.5V24.4z"/>
			<path fill="#09BCD4" d="M272.2,29.1v11.1h-4.4V13.5h9.8c3,0,5.3,0.7,6.9,2c1.6,1.3,2.4,3.3,2.4,5.7c0,1.4-0.4,2.6-1.1,3.6
				s-1.8,1.8-3.1,2.4c1.5,0.5,2.6,1.3,3.2,2.3c0.7,1.1,1,2.4,1,4v2.2c0,0.8,0.1,1.5,0.3,2.3c0.2,0.7,0.5,1.3,1,1.7v0.4h-4.6
				c-0.5-0.4-0.8-1-0.9-1.9c-0.1-0.9-0.2-1.7-0.2-2.5v-2.1c0-1.4-0.4-2.5-1.2-3.3c-0.8-0.8-1.9-1.2-3.2-1.2H272.2z M272.2,25.5h5.2
				c1.8,0,3.1-0.3,3.9-1s1.2-1.7,1.2-3.1c0-1.3-0.4-2.4-1.2-3.2c-0.8-0.8-2-1.1-3.7-1.1h-5.4V25.5z"/>
			<path fill="#09BCD4" d="M312.8,13.5v17.9c0,3-1,5.2-2.9,6.8s-4.4,2.4-7.6,2.4c-3,0-5.5-0.8-7.4-2.4c-1.9-1.6-2.8-3.8-2.8-6.8
				V13.5h4.4v17.8c0,1.9,0.5,3.3,1.6,4.2c1,0.9,2.5,1.4,4.2,1.4c1.8,0,3.3-0.5,4.4-1.4c1.1-0.9,1.6-2.3,1.6-4.2V13.5H312.8z"/>
			<path fill="#09BCD4" d="M323.8,13.5l7.7,20.5h0.1l7.7-20.5h5.8v26.6h-4.4v-9.1l0.4-11.5l-0.1,0L333,40.2h-3l-7.9-20.6l-0.1,0
				l0.4,11.5v9.1h-4.4V13.5H323.8z"/>
		</g>
	</g>
</g>
<g>
	<path fill="#FFFFFF" d="M400.6,121.6c0,1-0.3,1.9-1,2.6s-1.5,1-2.6,1c-1.1,0-1.9-0.3-2.6-1s-1-1.5-1-2.6v-1.5c0-1,0.3-1.9,1-2.6
		s1.5-1,2.6-1c1.1,0,1.9,0.3,2.6,1s1,1.5,1,2.6V121.6z M398.9,120c0-0.7-0.2-1.2-0.5-1.6s-0.8-0.6-1.4-0.6s-1,0.2-1.4,0.6
		s-0.5,1-0.5,1.6v1.5c0,0.7,0.2,1.2,0.5,1.7s0.8,0.6,1.4,0.6c0.6,0,1-0.2,1.4-0.6s0.5-1,0.5-1.7V120z"/>
	<path fill="#FFFFFF" d="M403.7,121.7v3.4H402v-8.5h3.2c1,0,1.7,0.2,2.3,0.7s0.8,1.1,0.8,1.9c0,0.4-0.1,0.8-0.3,1.1s-0.6,0.6-1,0.8
		c0.5,0.1,0.9,0.4,1.1,0.7s0.3,0.8,0.3,1.3v0.6c0,0.2,0,0.5,0.1,0.7s0.2,0.5,0.3,0.6v0.1H407c-0.2-0.1-0.3-0.3-0.3-0.6
		s-0.1-0.6-0.1-0.8V123c0-0.4-0.1-0.8-0.3-1s-0.6-0.4-1-0.4H403.7z M403.7,120.4h1.5c0.5,0,0.8-0.1,1.1-0.3s0.4-0.5,0.4-0.9
		c0-0.4-0.1-0.7-0.4-0.9s-0.6-0.3-1-0.3h-1.5V120.4z"/>
	<path fill="#FFFFFF" d="M416.4,123.9c-0.3,0.3-0.6,0.6-1.2,0.9s-1.2,0.4-2,0.4c-1,0-1.9-0.3-2.6-1s-1-1.5-1-2.5v-1.8
		c0-1,0.3-1.9,1-2.5s1.5-1,2.5-1c1,0,1.8,0.3,2.4,0.8s0.8,1.2,0.8,2l0,0h-1.6c0-0.5-0.2-0.8-0.4-1.1s-0.6-0.4-1.1-0.4
		c-0.5,0-0.9,0.2-1.3,0.6c-0.3,0.4-0.5,0.9-0.5,1.6v1.8c0,0.6,0.2,1.2,0.5,1.6c0.3,0.4,0.8,0.6,1.3,0.6c0.4,0,0.7,0,1-0.1
		c0.2-0.1,0.4-0.2,0.6-0.3v-1.6h-1.5v-1.2h3.2V123.9z"/>
	<path fill="#FFFFFF" d="M422.5,123.3h-3l-0.6,1.8h-1.7l2.9-8.5h1.8l2.9,8.5h-1.7L422.5,123.3z M419.9,121.9h2.2l-1.1-3.4h0
		L419.9,121.9z"/>
	<path fill="#FFFFFF" d="M432.5,125.1h-1.7l-3.4-5.8l0,0v5.8h-1.7v-8.5h1.7l3.4,5.8l0,0v-5.8h1.7V125.1z"/>
	<path fill="#FFFFFF" d="M435.9,125.1h-1.7v-8.5h1.7V125.1z"/>
	<path fill="#FFFFFF" d="M439.3,123.8h4.2v1.3h-6.2v-0.9l4.1-6.3h-4v-1.3h6.1v0.9L439.3,123.8z"/>
	<path fill="#FFFFFF" d="M449.9,121.3h-3.5v2.4h4.1v1.3h-5.8v-8.5h5.8v1.3h-4.1v2.1h3.5V121.3z"/>
	<path fill="#FFFFFF" d="M451.6,125.1v-8.5h2.9c1,0,1.9,0.3,2.6,1s1,1.5,1,2.6v1.4c0,1-0.3,1.9-1,2.6s-1.5,1-2.6,1H451.6z
		 M453.3,117.9v5.9h1.1c0.6,0,1.1-0.2,1.4-0.6c0.3-0.4,0.5-1,0.5-1.6v-1.4c0-0.7-0.2-1.2-0.5-1.6c-0.3-0.4-0.8-0.6-1.4-0.6H453.3z"
		/>
	<path fill="#FFFFFF" d="M462.4,125.1v-8.5h2.9c1,0,1.8,0.2,2.3,0.6s0.8,1,0.8,1.8c0,0.4-0.1,0.7-0.3,1.1s-0.5,0.5-0.9,0.7
		c0.5,0.1,0.9,0.3,1.2,0.7s0.4,0.8,0.4,1.2c0,0.8-0.3,1.4-0.8,1.9s-1.3,0.6-2.3,0.6H462.4z M464.1,120.1h1.2c0.5,0,0.8-0.1,1.1-0.3
		s0.4-0.5,0.4-0.8c0-0.4-0.1-0.7-0.4-0.9s-0.6-0.3-1.1-0.3h-1.2V120.1z M464.1,121.3v2.5h1.6c0.5,0,0.8-0.1,1-0.3
		c0.2-0.2,0.4-0.5,0.4-0.9c0-0.4-0.1-0.7-0.3-1s-0.5-0.3-1-0.3H464.1z"/>
	<path fill="#FFFFFF" d="M472.3,120.5L472.3,120.5l1.9-3.9h1.9l-2.9,5.5v3h-1.7V122l-2.9-5.4h1.9L472.3,120.5z"/>
</g>
<g>
	<g>
		<path fill="#FFFFFF" d="M413.6,131.3c0.3,0,0.5,0,0.7-0.1c0.2,0,0.4,0,0.7-0.1c0.2,0,0.4,0,0.7,0c0.2,0,0.5,0,0.8,0
			c0.6,0,1.2,0.1,1.9,0.2c0.6,0.1,1.2,0.3,1.6,0.6c0.5,0.3,0.9,0.7,1.2,1.2c0.3,0.5,0.5,1.2,0.5,2c0,0.5-0.1,0.9-0.2,1.3
			c-0.2,0.4-0.4,0.7-0.6,1.1c-0.2,0.3-0.5,0.6-0.8,0.8c-0.3,0.2-0.6,0.4-0.9,0.6l-0.2,0.1l3.9,5.6c-0.3,0-0.7,0.1-1.1,0.1
			c-0.3,0-0.7,0-1-0.1l-4.2-6.1v-0.1l0.1,0c0.3-0.1,0.7-0.2,1.1-0.4c0.4-0.1,0.7-0.3,1-0.6c0.3-0.2,0.6-0.5,0.8-0.9
			c0.2-0.3,0.3-0.7,0.3-1.2c0-0.9-0.3-1.5-0.8-2c-0.5-0.4-1.2-0.6-2.1-0.6c-0.2,0-0.4,0-0.6,0c-0.2,0-0.4,0-0.6,0.1v11.8
			c-0.1,0-0.3,0-0.5,0c-0.2,0-0.3,0-0.5,0c-0.1,0-0.3,0-0.5,0c-0.2,0-0.3,0-0.5,0V131.3z"/>
		<path fill="#FFFFFF" d="M424.4,135.1c0.1,0,0.3,0,0.5-0.1c0.2,0,0.3,0,0.4,0c0.1,0,0.3,0,0.5,0c0.2,0,0.3,0,0.5,0.1v5.2
			c0,0.6,0.1,1.1,0.2,1.5c0.1,0.4,0.3,0.7,0.5,0.9c0.2,0.2,0.5,0.4,0.8,0.5c0.3,0.1,0.7,0.1,1.1,0.1c0.6,0,1.2-0.1,1.6-0.2v-7.9
			c0.1,0,0.3,0,0.5-0.1c0.2,0,0.3,0,0.5,0c0.1,0,0.3,0,0.5,0c0.2,0,0.3,0,0.5,0.1v9.2c-0.4,0.1-0.9,0.2-1.5,0.4
			c-0.6,0.1-1.2,0.2-1.9,0.2c-0.6,0-1.2-0.1-1.7-0.2c-0.5-0.1-1-0.3-1.4-0.6c-0.4-0.3-0.7-0.8-1-1.3c-0.2-0.6-0.4-1.3-0.4-2.3V135.1
			z"/>
		<path fill="#FFFFFF" d="M434.9,142.9c0.3,0.1,0.7,0.2,1.1,0.3c0.4,0.1,0.8,0.1,1.2,0.1c0.3,0,0.6,0,0.8-0.1
			c0.3-0.1,0.5-0.2,0.7-0.3c0.2-0.1,0.3-0.3,0.5-0.5c0.1-0.2,0.2-0.4,0.2-0.6c0-0.2,0-0.4-0.1-0.6c-0.1-0.2-0.2-0.3-0.4-0.4
			c-0.2-0.1-0.3-0.2-0.5-0.3c-0.2-0.1-0.4-0.2-0.7-0.2l-0.6-0.2c-0.8-0.3-1.4-0.6-1.7-1c-0.4-0.4-0.5-0.9-0.5-1.5
			c0-0.8,0.3-1.5,0.9-2c0.6-0.5,1.5-0.7,2.6-0.7c0.5,0,0.9,0,1.4,0.1c0.5,0.1,0.9,0.2,1.2,0.3c0,0.2-0.1,0.5-0.1,0.7
			c-0.1,0.2-0.2,0.5-0.2,0.7c-0.3-0.1-0.6-0.2-1-0.3c-0.4-0.1-0.8-0.1-1.2-0.1c-0.5,0-0.9,0.1-1.2,0.2c-0.4,0.2-0.5,0.4-0.5,0.8
			c0,0.2,0,0.4,0.1,0.5c0.1,0.1,0.2,0.3,0.4,0.4c0.1,0.1,0.3,0.2,0.5,0.3c0.2,0.1,0.4,0.1,0.6,0.2l0.8,0.3c0.3,0.1,0.6,0.2,0.8,0.4
			c0.3,0.1,0.5,0.3,0.7,0.5c0.2,0.2,0.3,0.4,0.5,0.7c0.1,0.3,0.2,0.6,0.2,1c0,0.5-0.1,0.9-0.3,1.2c-0.2,0.4-0.4,0.7-0.8,1
			c-0.3,0.3-0.7,0.5-1.2,0.6c-0.5,0.1-1,0.2-1.6,0.2c-0.6,0-1.1,0-1.5-0.1c-0.4-0.1-0.9-0.2-1.2-0.3c0-0.2,0.1-0.5,0.2-0.7
			C434.7,143.4,434.8,143.1,434.9,142.9z"/>
		<path fill="#FFFFFF" d="M442.8,142.9c0.3,0.1,0.7,0.2,1.1,0.3c0.4,0.1,0.8,0.1,1.2,0.1c0.3,0,0.6,0,0.8-0.1
			c0.3-0.1,0.5-0.2,0.7-0.3c0.2-0.1,0.3-0.3,0.5-0.5c0.1-0.2,0.2-0.4,0.2-0.6c0-0.2,0-0.4-0.1-0.6c-0.1-0.2-0.2-0.3-0.4-0.4
			c-0.2-0.1-0.3-0.2-0.5-0.3c-0.2-0.1-0.4-0.2-0.7-0.2l-0.6-0.2c-0.8-0.3-1.4-0.6-1.7-1c-0.4-0.4-0.5-0.9-0.5-1.5
			c0-0.8,0.3-1.5,0.9-2c0.6-0.5,1.5-0.7,2.6-0.7c0.5,0,0.9,0,1.4,0.1c0.5,0.1,0.9,0.2,1.2,0.3c0,0.2-0.1,0.5-0.1,0.7
			c-0.1,0.2-0.2,0.5-0.2,0.7c-0.3-0.1-0.6-0.2-1-0.3c-0.4-0.1-0.8-0.1-1.2-0.1c-0.5,0-0.9,0.1-1.2,0.2c-0.4,0.2-0.5,0.4-0.5,0.8
			c0,0.2,0,0.4,0.1,0.5c0.1,0.1,0.2,0.3,0.4,0.4c0.1,0.1,0.3,0.2,0.5,0.3c0.2,0.1,0.4,0.1,0.6,0.2l0.8,0.3c0.3,0.1,0.6,0.2,0.8,0.4
			c0.3,0.1,0.5,0.3,0.7,0.5c0.2,0.2,0.3,0.4,0.5,0.7c0.1,0.3,0.2,0.6,0.2,1c0,0.5-0.1,0.9-0.3,1.2c-0.2,0.4-0.4,0.7-0.8,1
			c-0.3,0.3-0.7,0.5-1.2,0.6c-0.5,0.1-1,0.2-1.6,0.2c-0.6,0-1.1,0-1.5-0.1c-0.4-0.1-0.9-0.2-1.2-0.3c0-0.2,0.1-0.5,0.2-0.7
			C442.6,143.4,442.7,143.1,442.8,142.9z"/>
		<path fill="#FFFFFF" d="M451.9,136.5h-1.2c0-0.1,0-0.2-0.1-0.3c0-0.1,0-0.3,0-0.4c0-0.1,0-0.2,0-0.4c0-0.1,0-0.2,0.1-0.3h3v9.5
			c-0.1,0-0.3,0-0.5,0.1c-0.2,0-0.3,0-0.5,0c-0.1,0-0.3,0-0.4,0c-0.2,0-0.3,0-0.5-0.1V136.5z M451.5,133c0-0.1,0-0.3,0-0.5
			c0-0.2,0-0.3,0-0.5c0-0.1,0-0.3,0-0.5c0-0.2,0-0.3,0-0.5c0.2,0,0.3,0,0.5-0.1c0.2,0,0.3,0,0.5,0c0.1,0,0.3,0,0.5,0
			c0.2,0,0.4,0,0.5,0.1c0,0.1,0,0.3,0,0.5c0,0.2,0,0.3,0,0.5c0,0.1,0,0.3,0,0.5c0,0.2,0,0.3,0,0.5c-0.1,0-0.3,0-0.5,0.1
			c-0.2,0-0.3,0-0.5,0c-0.1,0-0.3,0-0.5,0C451.8,133.1,451.7,133.1,451.5,133z"/>
		<path fill="#FFFFFF" d="M461.7,138.3c0-0.7-0.2-1.2-0.6-1.5c-0.4-0.3-0.9-0.4-1.6-0.4c-0.4,0-0.8,0-1.2,0.1
			c-0.4,0.1-0.7,0.2-1.1,0.3c-0.2-0.4-0.4-0.9-0.4-1.5c0.4-0.1,0.9-0.2,1.4-0.3c0.5-0.1,1-0.1,1.5-0.1c1.2,0,2.2,0.3,2.8,0.8
			c0.6,0.6,1,1.5,1,2.7v5.9c-0.4,0.1-1,0.2-1.6,0.3c-0.6,0.1-1.2,0.2-1.9,0.2c-0.6,0-1.1-0.1-1.6-0.2c-0.5-0.1-0.9-0.3-1.2-0.5
			c-0.3-0.2-0.6-0.6-0.8-0.9c-0.2-0.4-0.3-0.8-0.3-1.4c0-0.5,0.1-1,0.3-1.4c0.2-0.4,0.5-0.7,0.9-1c0.4-0.3,0.8-0.5,1.3-0.6
			c0.5-0.1,1-0.2,1.5-0.2c0.4,0,0.7,0,1,0c0.3,0,0.5,0,0.6,0.1V138.3z M461.7,140.1c-0.2,0-0.4,0-0.7-0.1c-0.3,0-0.5,0-0.7,0
			c-0.8,0-1.3,0.1-1.7,0.4c-0.4,0.3-0.6,0.7-0.6,1.3c0,0.4,0.1,0.7,0.2,0.9c0.1,0.2,0.3,0.4,0.5,0.5c0.2,0.1,0.4,0.2,0.7,0.2
			c0.2,0,0.5,0,0.7,0c0.3,0,0.6,0,0.9,0c0.3,0,0.6-0.1,0.8-0.1V140.1z"/>
		<path fill="#FFFFFF" d="M466.2,135.1c0.1,0,0.3,0,0.4-0.1c0.1,0,0.3,0,0.4,0c0.1,0,0.3,0,0.4,0c0.1,0,0.2,0,0.4,0.1
			c0,0.2,0.1,0.4,0.1,0.7c0,0.3,0.1,0.6,0.1,0.8c0.1-0.2,0.3-0.4,0.5-0.6c0.2-0.2,0.4-0.4,0.7-0.6c0.2-0.2,0.5-0.3,0.8-0.4
			c0.3-0.1,0.7-0.2,1.1-0.2c1.1,0,1.9,0.3,2.4,0.9c0.5,0.6,0.8,1.5,0.8,2.8v6c-0.1,0-0.3,0-0.5,0.1c-0.2,0-0.3,0-0.5,0
			c-0.1,0-0.3,0-0.5,0c-0.2,0-0.3,0-0.5-0.1v-5.5c0-0.9-0.1-1.5-0.4-1.9c-0.3-0.4-0.7-0.6-1.3-0.6c-0.3,0-0.7,0.1-1,0.2
			c-0.3,0.1-0.6,0.3-0.8,0.6s-0.4,0.6-0.6,1c-0.1,0.4-0.2,0.9-0.2,1.5v4.8c-0.1,0-0.3,0-0.5,0.1c-0.2,0-0.3,0-0.5,0s-0.3,0-0.5,0
			c-0.2,0-0.3,0-0.5-0.1V135.1z"/>
	</g>
	<g>
		<path fill="#FFFFFF" d="M439.2,153c0.1,0.1,0.1,0.3,0.2,0.5c0.1,0.2,0.1,0.4,0.1,0.6c-0.6,0.2-1.2,0.3-1.9,0.3
			c-1.2,0-2.1-0.3-2.8-1c-0.6-0.7-0.9-1.6-0.9-2.8c0-0.5,0.1-1,0.2-1.5c0.2-0.5,0.4-0.9,0.7-1.2c0.3-0.3,0.7-0.6,1.1-0.8
			c0.4-0.2,1-0.3,1.6-0.3c0.4,0,0.8,0,1.1,0.1c0.3,0,0.6,0.1,0.9,0.2c0,0.2,0,0.3-0.1,0.6c0,0.2-0.1,0.4-0.2,0.6
			c-0.5-0.2-1-0.2-1.6-0.2c-0.7,0-1.3,0.2-1.6,0.7c-0.4,0.5-0.5,1.1-0.5,1.9c0,0.9,0.2,1.6,0.6,2c0.4,0.4,1,0.6,1.7,0.6
			c0.3,0,0.5,0,0.8-0.1C438.7,153.1,439,153.1,439.2,153z"/>
		<path fill="#FFFFFF" d="M442,150.9c0,0.8,0.2,1.4,0.6,1.8c0.4,0.4,1,0.6,1.7,0.6c0.7,0,1.3-0.1,1.9-0.4c0.1,0.1,0.1,0.3,0.2,0.5
			c0,0.2,0.1,0.4,0.1,0.6c-0.3,0.1-0.7,0.2-1,0.3c-0.4,0.1-0.8,0.1-1.2,0.1c-0.7,0-1.2-0.1-1.7-0.3c-0.5-0.2-0.9-0.4-1.2-0.8
			c-0.3-0.3-0.5-0.7-0.7-1.2c-0.1-0.5-0.2-1-0.2-1.5c0-0.5,0.1-1,0.2-1.5c0.1-0.5,0.3-0.9,0.6-1.2c0.3-0.3,0.6-0.6,1.1-0.8
			c0.4-0.2,0.9-0.3,1.5-0.3c0.5,0,0.9,0.1,1.3,0.3c0.4,0.2,0.7,0.4,1,0.7c0.3,0.3,0.5,0.7,0.6,1.1c0.1,0.4,0.2,0.9,0.2,1.3
			c0,0.1,0,0.3,0,0.4c0,0.1,0,0.3,0,0.4H442z M445.6,149.9c0-0.3,0-0.5-0.1-0.8c-0.1-0.2-0.2-0.5-0.3-0.6c-0.1-0.2-0.3-0.3-0.5-0.4
			c-0.2-0.1-0.5-0.2-0.8-0.2c-0.6,0-1,0.2-1.3,0.5c-0.3,0.4-0.5,0.8-0.6,1.5H445.6z"/>
		<path fill="#FFFFFF" d="M448.8,146.9c0.1,0,0.2,0,0.3,0c0.1,0,0.2,0,0.3,0c0.1,0,0.2,0,0.3,0c0.1,0,0.2,0,0.3,0
			c0,0.1,0.1,0.3,0.1,0.6c0,0.2,0,0.4,0,0.6c0.1-0.2,0.2-0.3,0.4-0.5c0.1-0.2,0.3-0.3,0.5-0.4c0.2-0.1,0.4-0.2,0.7-0.3
			c0.2-0.1,0.5-0.1,0.8-0.1c0.8,0,1.5,0.2,1.9,0.7c0.4,0.5,0.6,1.2,0.6,2.1v4.6c-0.1,0-0.2,0-0.4,0c-0.1,0-0.3,0-0.4,0
			c-0.1,0-0.2,0-0.3,0c-0.1,0-0.2,0-0.3,0V150c0-0.7-0.1-1.2-0.3-1.5c-0.2-0.3-0.5-0.5-1-0.5c-0.3,0-0.5,0-0.8,0.1
			c-0.2,0.1-0.4,0.2-0.6,0.4c-0.2,0.2-0.3,0.5-0.4,0.8c-0.1,0.3-0.2,0.7-0.2,1.1v3.7c-0.1,0-0.2,0-0.3,0c-0.1,0-0.2,0-0.3,0
			c-0.1,0-0.2,0-0.4,0c-0.1,0-0.3,0-0.4,0V146.9z"/>
		<path fill="#FFFFFF" d="M457.4,148.1h-1.1l-0.1-0.2l2.5-2.7h0.1v1.8h1.9c0,0.2,0.1,0.3,0.1,0.5c0,0.1,0,0.2,0,0.3
			c0,0.1,0,0.2,0,0.3h-1.9v3.3c0,0.4,0,0.7,0,1c0,0.2,0.1,0.4,0.2,0.5c0.1,0.1,0.2,0.2,0.3,0.3c0.1,0,0.3,0.1,0.5,0.1
			c0.2,0,0.3,0,0.5,0c0.1,0,0.3,0,0.4-0.1c0.1,0.2,0.1,0.4,0.1,0.6c0,0.2,0,0.4,0,0.5c-0.2,0-0.4,0.1-0.6,0.1c-0.2,0-0.4,0-0.7,0
			c-0.7,0-1.2-0.2-1.6-0.5c-0.4-0.3-0.6-0.9-0.6-1.7V148.1z"/>
		<path fill="#FFFFFF" d="M463.2,150.9c0,0.8,0.2,1.4,0.6,1.8c0.4,0.4,1,0.6,1.7,0.6c0.7,0,1.3-0.1,1.9-0.4c0.1,0.1,0.1,0.3,0.2,0.5
			c0,0.2,0.1,0.4,0.1,0.6c-0.3,0.1-0.7,0.2-1,0.3c-0.4,0.1-0.8,0.1-1.2,0.1c-0.7,0-1.2-0.1-1.7-0.3c-0.5-0.2-0.9-0.4-1.2-0.8
			c-0.3-0.3-0.5-0.7-0.7-1.2c-0.1-0.5-0.2-1-0.2-1.5c0-0.5,0.1-1,0.2-1.5c0.1-0.5,0.3-0.9,0.6-1.2c0.3-0.3,0.6-0.6,1.1-0.8
			c0.4-0.2,0.9-0.3,1.5-0.3c0.5,0,0.9,0.1,1.3,0.3c0.4,0.2,0.7,0.4,1,0.7c0.3,0.3,0.5,0.7,0.6,1.1c0.1,0.4,0.2,0.9,0.2,1.3
			c0,0.1,0,0.3,0,0.4c0,0.1,0,0.3,0,0.4H463.2z M466.9,149.9c0-0.3,0-0.5-0.1-0.8c-0.1-0.2-0.2-0.5-0.3-0.6
			c-0.1-0.2-0.3-0.3-0.5-0.4c-0.2-0.1-0.5-0.2-0.8-0.2c-0.6,0-1,0.2-1.3,0.5c-0.3,0.4-0.5,0.8-0.6,1.5H466.9z"/>
		<path fill="#FFFFFF" d="M470.1,146.9c0.1,0,0.2,0,0.3,0c0.1,0,0.2,0,0.3,0c0.1,0,0.2,0,0.3,0c0.1,0,0.2,0,0.3,0
			c0,0.1,0.1,0.3,0.1,0.6c0,0.2,0,0.4,0,0.6c0.2-0.3,0.5-0.6,0.8-0.8c0.3-0.2,0.7-0.4,1.3-0.4c0.1,0,0.2,0,0.2,0c0.1,0,0.1,0,0.2,0
			c0,0.1,0,0.2,0,0.3c0,0.1,0,0.2,0,0.3c0,0.1,0,0.2,0,0.4c0,0.1,0,0.2,0,0.4c-0.1,0-0.2,0-0.2,0c-0.1,0-0.1,0-0.2,0
			c-0.3,0-0.5,0-0.7,0.1c-0.2,0.1-0.4,0.2-0.6,0.4c-0.2,0.2-0.3,0.4-0.4,0.7c-0.1,0.3-0.2,0.7-0.2,1.2v3.6c-0.1,0-0.2,0-0.3,0
			c-0.1,0-0.2,0-0.3,0c-0.1,0-0.2,0-0.3,0c-0.1,0-0.2,0-0.4,0V146.9z"/>
	</g>
	<g>
		<path fill="#FFFFFF" d="M487.9,135v19.6h-4.2l-2.5-8.9v8.9h-4V135h4l2.7,8.8V135H487.9z"/>
		<path fill="#FFFFFF" d="M499.9,135l-3.5,12.5v7.1h-4.4v-7.1l-3.3-12.5h4.4c0.7,3.8,1.1,6.4,1.2,7.7c0.3-2.1,0.7-4.7,1.3-7.7H499.9
			z"/>
	</g>
</g>
</svg>
